<?xml version="1.0" encoding="UTF-8" standalone="no"?>
<!-- Generator: Adobe Illustrator 25.0.1, SVG Export Plug-In . SVG Version: 6.00 Build 0)  -->

<svg
   version="1.1"
   id="Layer_1"
   x="0px"
   y="0px"
   viewBox="0 0 411.3 99.9"
   style="enable-background:new 0 0 411.3 99.9;"
   xml:space="preserve"
   sodipodi:docname="begin.svg"
   inkscape:version="1.1.1 (3bf5ae0d25, 2021-09-20)"
   xmlns:inkscape="http://www.inkscape.org/namespaces/inkscape"
   xmlns:sodipodi="http://sodipodi.sourceforge.net/DTD/sodipodi-0.dtd"
   xmlns="http://www.w3.org/2000/svg"
   xmlns:svg="http://www.w3.org/2000/svg"><defs
   id="defs61" /><sodipodi:namedview
   id="namedview59"
   pagecolor="#ffffff"
   bordercolor="#666666"
   borderopacity="1.0"
   inkscape:pageshadow="2"
   inkscape:pageopacity="0.0"
   inkscape:pagecheckerboard="0"
   showgrid="false"
   inkscape:zoom="1.9495724"
   inkscape:cx="223.89525"
   inkscape:cy="16.670322"
   inkscape:window-width="1920"
   inkscape:window-height="1009"
   inkscape:window-x="1912"
   inkscape:window-y="-8"
   inkscape:window-maximized="1"
   inkscape:current-layer="g56" />
<style
   type="text/css"
   id="style2">
	.st0{fill:url(#SVGID_1_);}
	.st1{fill:url(#SVGID_2_);}
	.st2{opacity:0.55;fill:#010001;}
	.st3{fill:#985B0B;}
	.st4{fill:url(#SVGID_3_);}
	.st5{fill:url(#SVGID_4_);}
	.st6{fill:#FF6C6C;}
	.st7{fill:#3F0509;}
	.st8{fill:#FFF9EF;}
</style>
<g
   id="g56">
	<g
   id="g40">
		<linearGradient
   id="SVGID_1_"
   gradientUnits="userSpaceOnUse"
   x1="205.65359"
   y1="-0.7428"
   x2="205.65359"
   y2="101.2527">
			<stop
   offset="0"
   style="stop-color:#FCAB31"
   id="stop4" />
			<stop
   offset="1"
   style="stop-color:#7F4601"
   id="stop6" />
		</linearGradient>
		<path
   class="st0"
   d="M 390.6,0 H 20.7 C 9.3,0 0,9.3 0,20.7 v 58.5 c 0,11.4 9.3,20.7 20.7,20.7 h 369.9 c 11.4,0 20.7,-9.3 20.7,-20.7 V 20.7 C 411.3,9.3 402,0 390.6,0 Z"
   id="path9" />
		<linearGradient
   id="SVGID_2_"
   gradientUnits="userSpaceOnUse"
   x1="205.65359"
   y1="-0.50230002"
   x2="205.65359"
   y2="68.474503">
			<stop
   offset="0"
   style="stop-color:#FCAB31"
   id="stop11" />
			<stop
   offset="1"
   style="stop-color:#7F4601"
   id="stop13" />
		</linearGradient>
		<path
   class="st1"
   d="M 390.6,0 H 20.7 C 9.3,0 0,9.3 0,20.7 v 26.2 c 0,11.4 9.3,20.7 20.7,20.7 h 369.9 c 11.4,0 20.7,-9.3 20.7,-20.7 V 20.7 C 411.3,9.3 402,0 390.6,0 Z"
   id="path16" />
		<path
   class="st2"
   d="M 386.2,96.6 H 21.1 C 11.3,96.6 3.3,88.6 3.3,78.8 V 25.1 c 0,-9 7.3,-16.4 16.4,-16.4 h 366.6 c 9,0 16.4,7.3 16.4,16.4 v 55.2 c -0.1,9 -7.4,16.3 -16.5,16.3 z"
   id="path18" />
		<path
   class="st3"
   d="M 390.6,0 H 20.7 C 9.3,0 0,9.3 0,20.7 v 1 C 0,10.3 9.3,1 20.7,1 h 369.9 c 11.4,0 20.7,9.3 20.7,20.7 v -1 C 411.3,9.3 402,0 390.6,0 Z"
   id="path20" />
		<linearGradient
   id="SVGID_3_"
   gradientUnits="userSpaceOnUse"
   x1="205.65359"
   y1="94.560402"
   x2="205.65359"
   y2="4.8161998">
			<stop
   offset="0"
   style="stop-color:#6D0B0F"
   id="stop22" />
			<stop
   offset="1"
   style="stop-color:#BB2929"
   id="stop24" />
		</linearGradient>
		<path
   class="st4"
   d="M 390.6,93.9 H 20.7 C 12.6,93.9 6,87.3 6,79.2 V 20.7 C 6,12.6 12.6,6 20.7,6 h 369.9 c 8.1,0 14.7,6.6 14.7,14.7 v 58.5 c 0,8.1 -6.6,14.7 -14.7,14.7 z"
   id="path27" />
		<linearGradient
   id="SVGID_4_"
   gradientUnits="userSpaceOnUse"
   x1="205.6526"
   y1="58.439602"
   x2="205.6526"
   y2="5.9960999">
			<stop
   offset="0"
   style="stop-color:#9F1A1A"
   id="stop29" />
			<stop
   offset="1"
   style="stop-color:#B82324"
   id="stop31" />
		</linearGradient>
		<path
   class="st5"
   d="M 390.6,6 H 20.7 C 12.6,6 6,12.6 6,20.7 v 22.4 c 0,0 0,15.4 81.5,15.4 h 236.3 c 81.5,0 81.5,-15.4 81.5,-15.4 V 20.7 C 405.3,12.6 398.7,6 390.6,6 Z"
   id="path34" />
		<path
   class="st6"
   d="M 390.6,6 H 20.7 C 12.6,6 6,12.6 6,20.7 v 2.2 C 6,14.8 12.6,8.2 20.7,8.2 h 369.9 c 8.1,0 14.7,6.6 14.7,14.7 V 20.7 C 405.3,12.6 398.7,6 390.6,6 Z"
   id="path36" />
		<path
   class="st7"
   d="m 20.7,93.9 h 369.9 c 8.1,0 14.7,-6.6 14.7,-14.7 V 77 c 0,8.1 -6.6,14.7 -14.7,14.7 H 20.7 C 12.6,91.7 6,85.1 6,77 v 2.2 c 0,8.1 6.6,14.7 14.7,14.7 z"
   id="path38" />
	</g>
	
<g
   aria-label="START"
   id="text2750"
   style="font-size:55.2189px;line-height:1.25;font-family:'Roman SD';-inkscape-font-specification:'Roman SD';fill:#fff9ef;stroke-width:1.38047"><path
     d="m 140.26266,59.480612 q 0,5.963641 -4.47273,9.221556 -3.86532,2.816164 -9.33199,2.816164 -0.11044,0 -2.42963,-0.110438 -2.3192,-0.110438 -2.42963,-0.110438 -0.44176,0 -3.14748,-0.607407 -2.9266,-0.662627 -2.9266,-0.883503 0,0 0.27609,-1.49091 0.38653,-1.711786 0.49697,-3.699666 -0.0552,-0.717846 0.22088,-1.877443 0.11044,0.05522 0.82828,2.429632 0.66263,2.098318 4.74883,3.644447 3.36835,1.270035 5.74276,1.270035 3.09226,0 5.30102,-1.601348 2.54007,-1.822224 2.54007,-5.02492 0,-3.865323 -2.92661,-6.460611 -2.0431,-1.767005 -6.57105,-3.644448 -5.30101,-2.208756 -6.7367,-3.092258 -1.71179,-1.104378 -2.76095,-3.092258 -0.99394,-1.987881 -0.99394,-3.810104 0,-5.080139 5.19058,-8.227616 4.25186,-2.54007 8.94546,-2.54007 l 9.49765,0.386533 v 0.607408 q 0,0 -0.49697,1.435691 -0.55219,1.601348 -0.66262,2.595288 -0.0552,0.938721 -0.22088,2.871383 -0.33131,-0.165657 -0.38653,-0.883502 -0.11044,-0.938722 -0.16566,-1.04916 -2.20875,-4.638387 -8.94546,-4.638387 -7.39933,0 -7.39933,5.742765 0,3.699667 3.09226,5.797985 2.31919,1.546129 7.56498,3.810104 4.41752,1.877442 6.07408,3.534009 2.48485,2.429632 2.48485,6.681487 z"
     id="path19039" /><path
     d="m 182.67075,32.092038 q -0.49697,1.435692 -0.99394,2.871383 -0.44175,1.435691 -0.44175,2.650507 v 0.662627 q 0,0 -0.11043,0.05522 -0.0552,0.05522 -0.22088,0.05522 -0.16566,0 -0.49697,-0.99394 -0.38653,-1.214816 -0.55219,-1.490911 -0.93872,-1.546129 -9.11112,-1.546129 -0.11044,0 -0.8835,0.05522 -0.77306,0.05522 -1.1596,0.110438 -0.49697,0.938721 -0.66262,5.080139 -0.16566,2.98182 -0.2761,5.963641 l -0.22087,12.03772 0.11043,7.178456 q 0.0552,0.276095 0.16566,2.374413 0.11044,1.435691 0.66263,2.319194 0.27609,0.49697 1.49091,0.828283 1.65656,0.441751 1.71178,0.441751 -0.27609,0.220876 -0.8835,0.331314 l -5.74276,-0.276095 q -0.38654,0 -3.86533,0.276095 -0.44175,0 -1.04916,0.220875 l -1.10437,-0.110437 q 0.11043,-0.331314 0.71784,-0.49697 0.60741,-0.165657 0.8835,-0.441752 0.60741,-0.883502 0.82829,-3.257915 0.27609,-2.429631 0.71784,-8.393272 l 0.16566,-15.682168 q 0,-8.227615 -0.8835,-8.227615 -1.21482,0 -5.13536,0.552189 -3.42357,0.552189 -4.25186,0.773064 -0.77306,0.165657 -1.767,1.049159 -0.93872,0.883503 -1.27003,1.877443 h -0.49697 v -0.386533 q 0,-0.110437 0.55218,-1.49091 0.38654,-1.325253 0.77307,-2.650507 0.82828,-2.263975 1.60135,-2.263975 l 13.85994,0.441751 h 10.27072 q 3.534,0 6.29495,-0.662626 z"
     id="path19041" /><path
     d="m 220.71643,70.690049 -6.23974,0.331313 q -3.25791,0 -5.63232,-4.748825 -1.38048,-3.202696 -2.76095,-6.350174 -1.04916,-2.705726 -3.64445,-7.620208 h -11.15421 q -0.82829,0 -2.15354,2.871383 -0.66263,1.711786 -1.32525,3.368353 -2.20876,5.190576 -2.20876,7.50977 0,2.319194 1.767,3.03704 2.15354,0.717845 4.30708,1.380472 l -7.34412,0.828283 q -0.82828,0 -2.87138,-0.220875 -2.0431,-0.165657 -2.9266,-0.165657 2.9266,-2.208756 5.08014,-6.571049 2.20875,-4.417512 7.0128,-15.626948 5.30101,-12.424252 5.30101,-13.804725 0,-0.883502 -0.66262,-1.435691 -0.66263,-0.607408 -1.54613,-0.607408 -0.11044,0 -0.49697,0.05522 -0.44175,0 -0.55219,0 -0.2761,0 -0.49697,-0.220876 0,-0.276094 0.60741,-0.386532 0.66262,-0.110438 1.21481,-0.165657 l 6.29496,-0.165656 q 1.27003,0 2.6505,2.816163 0.71785,1.767005 1.49091,3.589229 2.65051,7.068019 5.35624,14.136038 4.14141,10.381153 7.84108,15.847824 0.66263,1.049159 1.93266,1.656567 1.10438,0.552189 1.1596,0.662626 z M 202.16288,51.197777 v -0.441751 q 0,-0.110438 -3.75489,-9.939402 -0.44175,-1.270034 -1.60134,-3.147477 l -5.68755,13.52863 z"
     id="path19043" /><path
     d="m 257.54737,70.524392 q -0.2761,0.331313 -3.86532,0.49697 -0.2761,0 -0.99394,0.05522 -0.66263,0.05522 -0.82829,0.05522 -2.9266,0 -4.74882,-1.822224 -0.88351,-0.883502 -3.75489,-5.356233 -1.1596,-2.043099 -2.37441,-4.086199 -1.54613,-2.429631 -3.14748,-3.920541 -1.21481,-1.104378 -4.85926,-1.104378 -0.55219,0 -0.55219,0.662626 v 9.939402 q 0,5.411452 2.9266,5.411452 0.49697,0 0.77307,0.220876 -1.76701,0.276094 -1.87745,0.276094 -0.16565,0 -2.26397,-0.05522 -2.0431,-0.05522 -2.15354,-0.05522 -1.04916,0 -4.74882,0.49697 0.44175,-0.276095 1.32525,-1.270035 0.49697,-0.828284 0.49697,-6.074079 l 0.38653,-7.620208 v -3.644447 q 0,-0.110438 0.11044,-1.380473 0.11044,-1.270034 0.11044,-1.380472 v -3.699666 l -0.2761,-7.233676 q 0,-2.540069 -1.15959,-5.411452 -0.0552,-0.276095 -0.55219,-0.441751 -0.66263,-0.220876 -0.66263,-0.220876 0.77307,-0.276094 1.21482,-0.276094 l 3.09225,-0.110438 q 1.65657,0 4.3623,-0.110438 l 5.74276,-0.276095 q 4.3623,0 7.56499,1.767005 4.30708,2.374413 4.30708,7.233676 0,3.313134 -1.76701,6.184517 -1.1596,1.877442 -3.36835,3.865322 -1.93266,1.767005 -2.0431,2.0431 0,0.110438 1.38047,2.208756 1.93266,2.98182 2.81617,4.417512 1.49091,2.48485 2.98182,4.9697 1.82222,2.871383 3.42357,4.086199 0.55219,0.441751 1.32525,0.662627 1.38047,0.386532 1.65657,0.496971 z M 245.17834,46.172858 q 0,-3.865323 -2.87139,-7.951522 -3.25791,-4.638387 -7.50977,-4.638387 -1.98788,0 -1.87744,0 l -0.27609,20.707087 h 3.69966 q 5.41145,0 7.0128,-1.435692 1.82223,-1.49091 1.82223,-6.681486 z"
     id="path19045" /><path
     d="m 295.81395,32.092038 q -0.49697,1.435692 -0.99394,2.871383 -0.44175,1.435691 -0.44175,2.650507 v 0.662627 q 0,0 -0.11043,0.05522 -0.0552,0.05522 -0.22088,0.05522 -0.16566,0 -0.49697,-0.99394 -0.38653,-1.214816 -0.55219,-1.490911 -0.93872,-1.546129 -9.11112,-1.546129 -0.11044,0 -0.8835,0.05522 -0.77306,0.05522 -1.1596,0.110438 -0.49697,0.938721 -0.66262,5.080139 -0.16566,2.98182 -0.2761,5.963641 l -0.22087,12.03772 0.11043,7.178456 q 0.0552,0.276095 0.16566,2.374413 0.11044,1.435691 0.66263,2.319194 0.27609,0.49697 1.49091,0.828283 1.65656,0.441751 1.71178,0.441751 -0.27609,0.220876 -0.8835,0.331314 l -5.74276,-0.276095 q -0.38654,0 -3.86533,0.276095 -0.44175,0 -1.04916,0.220875 l -1.10437,-0.110437 q 0.11043,-0.331314 0.71784,-0.49697 0.60741,-0.165657 0.8835,-0.441752 0.60741,-0.883502 0.82829,-3.257915 0.27609,-2.429631 0.71784,-8.393272 l 0.16566,-15.682168 q 0,-8.227615 -0.8835,-8.227615 -1.21482,0 -5.13536,0.552189 -3.42357,0.552189 -4.25186,0.773064 -0.77306,0.165657 -1.767,1.049159 -0.93872,0.883503 -1.27003,1.877443 h -0.49698 v -0.386533 q 0,-0.110437 0.55219,-1.49091 0.38654,-1.325253 0.77307,-2.650507 0.82828,-2.263975 1.60135,-2.263975 l 13.85994,0.441751 h 10.27072 q 3.534,0 6.29495,-0.662626 z"
     id="path19047" /></g></g>
</svg>
