<?xml version="1.0" encoding="UTF-8" standalone="no"?>
<!-- Generator: Adobe Illustrator 25.0.1, SVG Export Plug-In . SVG Version: 6.00 Build 0)  -->

<svg
   version="1.1"
   id="Layer_1"
   x="0px"
   y="0px"
   viewBox="0 0 222.5 54.1"
   style="enable-background:new 0 0 222.5 54.1;"
   xml:space="preserve"
   sodipodi:docname="close.svg"
   inkscape:version="1.1.1 (3bf5ae0d25, 2021-09-20)"
   xmlns:inkscape="http://www.inkscape.org/namespaces/inkscape"
   xmlns:sodipodi="http://sodipodi.sourceforge.net/DTD/sodipodi-0.dtd"
   xmlns:xlink="http://www.w3.org/1999/xlink"
   xmlns="http://www.w3.org/2000/svg"
   xmlns:svg="http://www.w3.org/2000/svg"><defs
   id="defs41"><linearGradient
     inkscape:collect="always"
     xlink:href="#SVGID_2_"
     id="linearGradient6785"
     x1="130.59877"
     y1="6.6987319"
     x2="110.78871"
     y2="65.561165"
     gradientUnits="userSpaceOnUse" /><linearGradient
     inkscape:collect="always"
     xlink:href="#SVGID_2_"
     id="linearGradient842"
     gradientUnits="userSpaceOnUse"
     x1="130.59877"
     y1="6.6987319"
     x2="110.78871"
     y2="65.561165" /><linearGradient
     inkscape:collect="always"
     xlink:href="#SVGID_2_"
     id="linearGradient844"
     gradientUnits="userSpaceOnUse"
     x1="130.59877"
     y1="6.6987319"
     x2="110.78871"
     y2="65.561165" /><linearGradient
     inkscape:collect="always"
     xlink:href="#SVGID_2_"
     id="linearGradient846"
     gradientUnits="userSpaceOnUse"
     x1="130.59877"
     y1="6.6987319"
     x2="110.78871"
     y2="65.561165" /><linearGradient
     inkscape:collect="always"
     xlink:href="#SVGID_2_"
     id="linearGradient848"
     gradientUnits="userSpaceOnUse"
     x1="130.59877"
     y1="6.6987319"
     x2="110.78871"
     y2="65.561165" /><linearGradient
     inkscape:collect="always"
     xlink:href="#SVGID_2_"
     id="linearGradient850"
     gradientUnits="userSpaceOnUse"
     x1="130.59877"
     y1="6.6987319"
     x2="110.78871"
     y2="65.561165" /></defs><sodipodi:namedview
   id="namedview39"
   pagecolor="#ffffff"
   bordercolor="#666666"
   borderopacity="1.0"
   inkscape:pageshadow="2"
   inkscape:pageopacity="0.0"
   inkscape:pagecheckerboard="0"
   showgrid="false"
   inkscape:zoom="2.5483146"
   inkscape:cx="98.300265"
   inkscape:cy="21.779101"
   inkscape:window-width="1536"
   inkscape:window-height="793"
   inkscape:window-x="-8"
   inkscape:window-y="-8"
   inkscape:window-maximized="1"
   inkscape:current-layer="Layer_1" />
<style
   type="text/css"
   id="style2">
	.st0{fill:#985B0B;}
	.st1{fill:url(#SVGID_1_);}
	.st2{fill:url(#SVGID_2_);}
	.st3{fill:#F8A83E;}
</style>
<g
   id="g36">
	<g
   id="g22">
		<g
   id="g20">
			<path
   class="st0"
   d="M 211.3,0 H 11.2 C 5,0 0,5 0,11.2 v 0.5 C 0,5.6 5,0.5 11.2,0.5 h 200.1 c 6.2,0 11.2,5 11.2,11.2 V 11.2 C 222.5,5 217.5,0 211.3,0 Z"
   id="path4" />
			<linearGradient
   id="SVGID_1_"
   gradientUnits="userSpaceOnUse"
   x1="111.2621"
   y1="-0.40180001"
   x2="111.2621"
   y2="54.778">
				<stop
   offset="0"
   style="stop-color:#FCAB31"
   id="stop6" />
				<stop
   offset="1"
   style="stop-color:#7F4601"
   id="stop8" />
			</linearGradient>
			<path
   class="st1"
   d="M 211.3,0 H 11.2 C 5,0 0,5 0,11.2 V 42.9 C 0,49 5,54.1 11.2,54.1 h 200.1 c 6.2,0 11.2,-5 11.2,-11.2 V 11.2 C 222.5,5 217.5,0 211.3,0 Z m 8,42.9 c 0,4.4 -3.6,7.9 -8,7.9 H 11.2 c -4.4,0 -8,-3.6 -8,-7.9 V 11.2 c 0,-4.4 3.6,-8 8,-8 h 200.1 c 4.4,0 8,3.6 8,8 z"
   id="path11" />
			<linearGradient
   id="SVGID_2_"
   gradientUnits="userSpaceOnUse"
   x1="111.2621"
   y1="-0.24699999"
   x2="111.2621"
   y2="33.677601">
				<stop
   offset="0"
   style="stop-color:#FCAB31"
   id="stop13" />
				<stop
   offset="1"
   style="stop-color:#7F4601"
   id="stop15" />
			</linearGradient>
			<path
   class="st2"
   d="m 222.5,11.2 v 14.2 c 0,3.1 -1.2,5.8 -3.2,7.9 v -22 c 0,-4.4 -3.6,-8 -8,-8 H 11.2 c -4.4,0 -8,3.6 -8,8 v 22 C 1.2,31.3 0,28.5 0,25.4 V 11.2 C 0,5 5,0 11.2,0 h 200.1 c 6.2,0 11.2,5 11.2,11.2 z"
   id="path18" />
		</g>
	</g>
	<g
   id="g34">
		<g
   id="g32">
			
			
			
			
		</g>
	</g>
</g>
<g
   aria-label="CLOSE"
   id="text1957"
   style="font-size:40px;line-height:1.25;font-family:'Roman SD';-inkscape-font-specification:'Roman SD';fill:url(#linearGradient6785)"
   transform="matrix(0.65865857,0,0,0.65865857,37.755277,8.7971697)"><path
     d="m 72.189279,14.416791 q -1.96,2.08 -3,5.8 -0.04,0 -0.16,0.04 -0.08,0.04 -0.12,0.04 0.08,-0.4 0.08,-0.8 0,-2.56 -3.72,-4.24 -3,-1.32 -6.04,-1.32 -2.92,0 -5.2,1.2 -3,1.56 -3.44,4.64 -0.2,0.16 -0.4,1.12 -0.16,0.96 -0.16,1.48 0,-0.12 0.04,0.4 0.04,0.52 0.04,1.56 0.56,5.8 5.2,10.12 4.48,4.2 9.68,4.2 2.16,0 3.92,-0.64 1.76,-0.64 1.76,-0.64 0.24,0 0.44,0.28 -0.28,0.44 -2.72,1.32 -4.96,1.84 -6.64,1.84 -0.08,0 -0.92,0.04 -0.84,0.04 -0.96,0.04 -5.92,0 -9.92,-4.52 -3.72,-4.28 -3.72,-9.96 0,-4.84 1.68,-7.24 2.2,-3.2 6.16,-5 3.52,-1.6 7.12,-1.6 -0.04,0 4.24,0.2 l 6.76,1.32 z"
     id="path6806"
     style="fill:url(#linearGradient842)" /><path
     d="m 92.589224,37.456791 q -1.48,2.04 -1.88,2.64 -0.88,1.48 -1.16,2.8 -0.28,-0.4 -1.44,-1.48 -0.6,-0.44 -1.6,-0.6 -1.72,-0.28 -7.52,-0.28 -0.36,0 -1.24,0.08 -0.88,0.12 -1.56,0.08 0,-0.08 0.44,-0.28 0.44,-0.24 0.56,-0.64 0.4,-1.28 0.4,-4.56 l 0.36,-6.56 v -7.56 l -0.2,-2.56 v -1.72 q 0,-1.16 -0.28,-2.56 -0.24,-1.16 -0.4,-1.32 -0.04,-0.04 -0.72,-0.4 0.28,-0.2 2.16,-0.24 2.16,-0.08 3,-0.32 0,0.52 -0.12,1.88 -0.12,1.48 -0.16,2.04 0,2.96 -0.28,13.44 l -0.2,6.76 q 0,0.72 0.16,1.84 0.16,1.44 0.44,1.52 0.72,0.2 2.08,0.2 0.08,0 1.6,0 1.52,0.04 1.6,0.04 4.36,0 5.64,-2.52 0.2,0 0.32,0.28 z"
     id="path6808"
     style="fill:url(#linearGradient844)" /><path
     d="m 127.94922,24.536791 q 0,6.48 -3.84,11.32 -4.28,5.44 -11.16,5.44 h -0.84 q -5.6,0 -9.24,-2.8 -4.280002,-3.24 -5.160002,-9.88 -0.12,-0.84 0,-1.8 0.92,-7.68 5.640002,-11.48 4.08,-3.24 10.48,-3.24 6.24,0 10.16,3.48 3.96,3.48 3.96,8.96 z m -3.92,4.84 q 0,-5.84 -3.68,-10.6 -4.16,-5.24 -10.48,-5.24 -4.16,0 -6.6,2.84 -2.32,2.64 -2.32,6.64 0,4.56 2.44,8.32 2.56,4 7.48,6.44 3.08,1.52 5.12,1.52 h 0.8 q 2.84,0 4.96,-2.12 2.2,-2.28 2.24,-5.64 0,-1 0.04,-1.64 0,-0.6 0,-0.52 z"
     id="path6810"
     style="fill:url(#linearGradient846)" /><path
     d="m 151.86916,32.216791 q 0,4.32 -3.24,6.68 -2.8,2.04 -6.76,2.04 -0.08,0 -1.76,-0.08 -1.68,-0.08 -1.76,-0.08 -0.32,0 -2.28,-0.44 -2.12,-0.48 -2.12,-0.64 0,0 0.2,-1.08 0.28,-1.24 0.36,-2.68 -0.04,-0.52 0.16,-1.36 0.08,0.04 0.6,1.76 0.48,1.52 3.44,2.64 2.44,0.92 4.16,0.92 2.24,0 3.84,-1.16 1.84,-1.32 1.84,-3.64 0,-2.8 -2.12,-4.68 -1.48,-1.28 -4.76,-2.64 -3.84,-1.6 -4.88,-2.24 -1.24,-0.8 -2,-2.24 -0.72,-1.44 -0.72,-2.76 0,-3.68 3.76,-5.96 3.08,-1.84 6.48,-1.84 l 6.88,0.28 v 0.44 q 0,0 -0.36,1.04 -0.4,1.16 -0.48,1.88 -0.04,0.68 -0.16,2.08 -0.24,-0.12 -0.28,-0.64 -0.08,-0.68 -0.12,-0.76 -1.6,-3.36 -6.48,-3.36 -5.36,0 -5.36,4.16 0,2.68 2.24,4.2 1.68,1.12 5.48,2.76 3.2,1.36 4.4,2.56 1.8,1.76 1.8,4.84 z"
     id="path6812"
     style="fill:url(#linearGradient848)" /><path
     d="m 179.06914,38.536791 q -0.92,0.68 -1.64,2.16 -0.6,1.16 -1.16,2.32 -0.04,-0.56 -0.28,-1.52 -0.52,-1.04 -4.76,-1.04 l -11.24,0.28 q 0.28,-0.44 0.52,-2.16 0.28,-1.72 0.28,-2.88 l 0.28,-4.72 v -4.96 q 0,-0.04 -0.04,-0.76 -0.04,-0.72 -0.04,-0.8 v -2.52 q 0,-1.08 -0.16,-3.8 -0.2,-3.68 -0.48,-3.92 -0.56,-0.44 -1.24,-0.48 -1.16,-0.08 -1.24,-0.08 0,-0.04 0.04,-0.12 0.04,-0.12 0.04,-0.16 l 18.6,-0.64 q -0.56,0.92 -1.24,2.52 -0.12,0.28 -0.36,0.96 -0.04,0 -0.16,-0.04 -0.08,-0.04 -0.12,-0.04 0.12,-0.24 0.12,-0.48 0,-0.68 -1.12,-1.12 -0.88,-0.4 -1.6,-0.4 -0.24,0 -0.32,0.16 -1.04,-0.56 -4.48,-0.56 -1.28,0 -1.64,0.16 -0.32,0.12 -0.36,1.16 -0.04,0.8 -0.04,1.6 -0.08,2.12 -0.32,6.32 0,2.12 -0.04,2.4 1.24,0.2 3.52,0.2 3.76,0 7.12,-1.16 0.16,0.16 0.16,0.28 0,0.08 -0.56,1.48 -0.64,1.56 -0.72,1.88 -0.2,0 -0.4,-0.4 -0.16,-0.44 -0.36,-0.6 -1.32,-0.84 -6.16,-0.84 -0.4,0 -2.44,0.24 -0.2,0.32 -0.2,0.76 v 8.88 q 0,0.04 0.04,0.68 0.04,0.6 0.04,0.88 0,0.76 0.12,1.32 2,0.56 5.4,0.56 h 1.68 q 1.24,0 3.56,-0.48 2.36,-0.52 3,-0.96 l 0.36,0.08 z"
     id="path6814"
     style="fill:url(#linearGradient850)" /></g></svg>
