<?xml version="1.0" encoding="UTF-8"?>
<!-- Generator: Adobe Illustrator 25.0.1, SVG Export Plug-In . SVG Version: 6.00 Build 0)  -->
<svg version="1.1" id="Layer_1" xmlns="http://www.w3.org/2000/svg" xmlns:xlink="http://www.w3.org/1999/xlink" x="0px" y="0px" viewBox="0 0 222.5 54.1" style="enable-background:new 0 0 222.5 54.1;" xml:space="preserve">
<style type="text/css">
	.st0{fill:#985B0B;}
	.st1{fill:url(#SVGID_1_);}
	.st2{fill:url(#SVGID_2_);}
	.st3{fill:#F8A83E;}
</style>
<g>
	<g>
		<g>
			<path class="st0" d="M211.3,0H11.2C5,0,0,5,0,11.2v0.5C0,5.6,5,0.5,11.2,0.5h200.1c6.2,0,11.2,5,11.2,11.2v-0.5     C222.5,5,217.5,0,211.3,0z"/>
			<linearGradient id="SVGID_1_" gradientUnits="userSpaceOnUse" x1="111.2621" y1="-0.4018" x2="111.2621" y2="54.778">
				<stop offset="0" style="stop-color:#FCAB31"/>
				<stop offset="1" style="stop-color:#7F4601"/>
			</linearGradient>
			<path class="st1" d="M211.3,0H11.2C5,0,0,5,0,11.2v31.7C0,49,5,54.1,11.2,54.1h200.1c6.2,0,11.2-5,11.2-11.2V11.2     C222.5,5,217.5,0,211.3,0z M219.3,42.9c0,4.4-3.6,7.9-8,7.9H11.2c-4.4,0-8-3.6-8-7.9V11.2c0-4.4,3.6-8,8-8h200.1c4.4,0,8,3.6,8,8     V42.9z"/>
			<linearGradient id="SVGID_2_" gradientUnits="userSpaceOnUse" x1="111.2621" y1="-0.247" x2="111.2621" y2="33.6776">
				<stop offset="0" style="stop-color:#FCAB31"/>
				<stop offset="1" style="stop-color:#7F4601"/>
			</linearGradient>
			<path class="st2" d="M222.5,11.2v14.2c0,3.1-1.2,5.8-3.2,7.9v-22c0-4.4-3.6-8-8-8H11.2c-4.4,0-8,3.6-8,8v22c-2-2-3.2-4.8-3.2-7.9     V11.2C0,5,5,0,11.2,0h200.1C217.5,0,222.5,5,222.5,11.2z"/>
		</g>
	</g>
	<g>
		<g>
			<path class="st3" d="M44,28.2c0-3.1,2.3-5.6,5.6-5.6c1.4,0,2.1,0.3,2.6,0.3c0.2,0,0.4,0,0.6-0.2l0.8,4.1l-0.1,0     c-0.8-1.1-2.1-2.1-3.8-2.1c-1.9,0-3.4,1.3-3.4,3.4s1.5,3.4,3.4,3.4c1.8,0,3-1,3.9-2.2l0.1,0l-0.8,4.2c-0.2-0.2-0.4-0.3-0.6-0.3     c-0.6,0-1.3,0.4-2.7,0.4C46.3,33.7,44,31.3,44,28.2z"/>
			<path class="st3" d="M56.1,28.2c0-3.3,2.3-5.6,5.6-5.6c3.3,0,5.6,2.3,5.6,5.6c0,3.3-2.3,5.6-5.6,5.6     C58.4,33.8,56.1,31.5,56.1,28.2z M64.9,28.2c0-2-1.3-3.4-3.2-3.4c-1.9,0-3.2,1.4-3.2,3.4c0,2,1.3,3.4,3.2,3.4     C63.6,31.6,64.9,30.2,64.9,28.2z"/>
			<path class="st3" d="M69.7,33.5c0.5-0.2,0.8-0.6,0.8-1.3v-8.1c0-0.7-0.3-1.1-0.8-1.3v0H73l4.8,7.3v-6c0-0.7-0.3-1.1-0.8-1.3v0     h3.9v0c-0.5,0.2-0.8,0.6-0.8,1.3v8.1c0,0.7,0.3,1.1,0.8,1.3v0h-3.3l-4.8-7.4v6.1c0,0.7,0.3,1.1,0.8,1.3v0L69.7,33.5L69.7,33.5z"/>
			<path class="st3" d="M93,25.7L93,25.7c-0.8-0.6-1.5-0.8-2.5-0.8h-1.4v7.4c0,0.7,0.3,1.1,0.8,1.3v0h-4v0c0.5-0.2,0.8-0.6,0.8-1.3     v-7.4h-1.4c-1,0-1.7,0.2-2.5,0.8l0,0l0.8-2.9h8.4L93,25.7z"/>
			<path class="st3" d="M104.8,30.6l-0.8,2.9h-8.9v0c0.5-0.2,0.8-0.6,0.8-1.3v-8.1c0-0.7-0.3-1.1-0.8-1.3v0h8.7l0.8,2.9l0,0     c-0.7-0.6-1.4-0.9-2.4-0.9h-3.9V27h3.1c0.7,0,1.1-0.3,1.4-0.9h0V30h0c-0.2-0.6-0.6-0.9-1.4-0.9h-3.1v2.4h4.1     C103.3,31.5,104.1,31.2,104.8,30.6L104.8,30.6z"/>
			<path class="st3" d="M108.8,33.2c-0.3,0-0.6,0.1-0.8,0.4l-1-4.3l0.1,0c1.3,1.5,3.2,2.4,4.9,2.4c1.3,0,2.2-0.4,2.2-1.1     c0-0.8-0.9-1-2.9-1.3c-1.8-0.3-4-1-4-3.2c0-2,2.1-3.3,4.7-3.3c1.6,0,2.3,0.4,2.8,0.4c0.3,0,0.5-0.1,0.7-0.3l0.7,4l-0.1,0     c-1-1.3-2.6-2-4.2-2c-1.3,0-2.3,0.4-2.3,1.1c0,0.8,1.2,1,2.3,1.2c2.1,0.4,4.5,1,4.5,3.3c0,2-1.9,3.3-4.4,3.3     C110.5,33.7,109.3,33.2,108.8,33.2z"/>
			<path class="st3" d="M128.5,25.7L128.5,25.7c-0.8-0.6-1.5-0.8-2.5-0.8h-1.4v7.4c0,0.7,0.3,1.1,0.8,1.3v0h-4v0     c0.5-0.2,0.8-0.6,0.8-1.3v-7.4h-1.4c-1,0-1.7,0.2-2.5,0.8l0,0l0.8-2.9h8.4L128.5,25.7z"/>
			<path class="st3" d="M135.1,33.5c0.5-0.2,0.8-0.6,0.8-1.3v-8.1c0-0.7-0.3-1.1-0.8-1.3v0h4v0c-0.5,0.2-0.8,0.6-0.8,1.3v8.1     c0,0.7,0.3,1.1,0.8,1.3v0L135.1,33.5L135.1,33.5z"/>
			<path class="st3" d="M142,33.5c0.5-0.2,0.8-0.6,0.8-1.3v-8.1c0-0.7-0.3-1.1-0.8-1.3v0h3.3l4.8,7.3v-6c0-0.7-0.3-1.1-0.8-1.3v0     h3.9v0c-0.5,0.2-0.8,0.6-0.8,1.3v8.1c0,0.7,0.3,1.1,0.8,1.3v0h-3.3l-4.8-7.4v6.1c0,0.7,0.3,1.1,0.8,1.3v0L142,33.5L142,33.5z"/>
			<path class="st3" d="M159.1,27.1h3.1c0.7,0,1.1-0.3,1.4-0.9h0v3.8h0c-0.2-0.6-0.6-0.9-1.4-0.9h-3.1v3c0,0.7,0.3,1.1,0.8,1.3v0h-4     v0c0.5-0.2,0.8-0.6,0.8-1.3v-8.1c0-0.7-0.3-1.1-0.8-1.3v0h8.6l0.8,2.9l0,0c-0.7-0.6-1.4-0.9-2.4-0.9h-3.8V27.1z"/>
			<path class="st3" d="M167.2,28.2c0-3.3,2.3-5.6,5.6-5.6s5.6,2.3,5.6,5.6c0,3.3-2.3,5.6-5.6,5.6S167.2,31.5,167.2,28.2z      M175.9,28.2c0-2-1.3-3.4-3.2-3.4c-1.9,0-3.2,1.4-3.2,3.4c0,2,1.3,3.4,3.2,3.4C174.6,31.6,175.9,30.2,175.9,28.2z"/>
		</g>
	</g>
</g>
</svg>