<?xml version="1.0" encoding="UTF-8" standalone="no"?>
<!-- Generator: Adobe Illustrator 25.0.1, SVG Export Plug-In . SVG Version: 6.00 Build 0)  -->

<svg
   version="1.1"
   id="Layer_1"
   x="0px"
   y="0px"
   viewBox="0 0 222.5 54.1"
   style="enable-background:new 0 0 222.5 54.1;"
   xml:space="preserve"
   sodipodi:docname="continue.svg"
   inkscape:version="1.1.1 (3bf5ae0d25, 2021-09-20)"
   xmlns:inkscape="http://www.inkscape.org/namespaces/inkscape"
   xmlns:sodipodi="http://sodipodi.sourceforge.net/DTD/sodipodi-0.dtd"
   xmlns:xlink="http://www.w3.org/1999/xlink"
   xmlns="http://www.w3.org/2000/svg"
   xmlns:svg="http://www.w3.org/2000/svg"><defs
   id="defs41"><linearGradient
     inkscape:collect="always"
     xlink:href="#SVGID_2_"
     id="linearGradient6785"
     x1="130.59877"
     y1="6.6987319"
     x2="110.78871"
     y2="65.561165"
     gradientUnits="userSpaceOnUse"
     gradientTransform="matrix(0.77185103,0,0,0.77185103,-16.357443,6.9836588)" /><linearGradient
     inkscape:collect="always"
     xlink:href="#SVGID_2_"
     id="linearGradient11535"
     gradientUnits="userSpaceOnUse"
     gradientTransform="matrix(0.77185103,0,0,0.77185103,-16.357443,6.9836588)"
     x1="130.59877"
     y1="6.6987319"
     x2="110.78871"
     y2="65.561165" /><linearGradient
     inkscape:collect="always"
     xlink:href="#SVGID_2_"
     id="linearGradient11537"
     gradientUnits="userSpaceOnUse"
     gradientTransform="matrix(0.77185103,0,0,0.77185103,-16.357443,6.9836588)"
     x1="130.59877"
     y1="6.6987319"
     x2="110.78871"
     y2="65.561165" /><linearGradient
     inkscape:collect="always"
     xlink:href="#SVGID_2_"
     id="linearGradient11539"
     gradientUnits="userSpaceOnUse"
     gradientTransform="matrix(0.77185103,0,0,0.77185103,-16.357443,6.9836588)"
     x1="130.59877"
     y1="6.6987319"
     x2="110.78871"
     y2="65.561165" /><linearGradient
     inkscape:collect="always"
     xlink:href="#SVGID_2_"
     id="linearGradient11541"
     gradientUnits="userSpaceOnUse"
     gradientTransform="matrix(0.77185103,0,0,0.77185103,-16.357443,6.9836588)"
     x1="130.59877"
     y1="6.6987319"
     x2="110.78871"
     y2="65.561165" /><linearGradient
     inkscape:collect="always"
     xlink:href="#SVGID_2_"
     id="linearGradient11543"
     gradientUnits="userSpaceOnUse"
     gradientTransform="matrix(0.77185103,0,0,0.77185103,-16.357443,6.9836588)"
     x1="130.59877"
     y1="6.6987319"
     x2="110.78871"
     y2="65.561165" /><linearGradient
     inkscape:collect="always"
     xlink:href="#SVGID_2_"
     id="linearGradient11545"
     gradientUnits="userSpaceOnUse"
     gradientTransform="matrix(0.77185103,0,0,0.77185103,-16.357443,6.9836588)"
     x1="130.59877"
     y1="6.6987319"
     x2="110.78871"
     y2="65.561165" /><linearGradient
     inkscape:collect="always"
     xlink:href="#SVGID_2_"
     id="linearGradient11547"
     gradientUnits="userSpaceOnUse"
     gradientTransform="matrix(0.77185103,0,0,0.77185103,-16.357443,6.9836588)"
     x1="130.59877"
     y1="6.6987319"
     x2="110.78871"
     y2="65.561165" /><linearGradient
     inkscape:collect="always"
     xlink:href="#SVGID_2_"
     id="linearGradient11549"
     gradientUnits="userSpaceOnUse"
     gradientTransform="matrix(0.77185103,0,0,0.77185103,-16.357443,6.9836588)"
     x1="130.59877"
     y1="6.6987319"
     x2="110.78871"
     y2="65.561165" /></defs><sodipodi:namedview
   id="namedview39"
   pagecolor="#ffffff"
   bordercolor="#666666"
   borderopacity="1.0"
   inkscape:pageshadow="2"
   inkscape:pageopacity="0.0"
   inkscape:pagecheckerboard="0"
   showgrid="false"
   inkscape:zoom="1.8019305"
   inkscape:cx="180.08463"
   inkscape:cy="38.014784"
   inkscape:window-width="1536"
   inkscape:window-height="793"
   inkscape:window-x="-8"
   inkscape:window-y="-8"
   inkscape:window-maximized="1"
   inkscape:current-layer="Layer_1" />
<style
   type="text/css"
   id="style2">
	.st0{fill:#985B0B;}
	.st1{fill:url(#SVGID_1_);}
	.st2{fill:url(#SVGID_2_);}
	.st3{fill:#F8A83E;}
</style>
<g
   id="g36">
	<g
   id="g22">
		<g
   id="g20">
			<path
   class="st0"
   d="M 211.3,0 H 11.2 C 5,0 0,5 0,11.2 v 0.5 C 0,5.6 5,0.5 11.2,0.5 h 200.1 c 6.2,0 11.2,5 11.2,11.2 V 11.2 C 222.5,5 217.5,0 211.3,0 Z"
   id="path4" />
			<linearGradient
   id="SVGID_1_"
   gradientUnits="userSpaceOnUse"
   x1="111.2621"
   y1="-0.40180001"
   x2="111.2621"
   y2="54.778">
				<stop
   offset="0"
   style="stop-color:#FCAB31"
   id="stop6" />
				<stop
   offset="1"
   style="stop-color:#7F4601"
   id="stop8" />
			</linearGradient>
			<path
   class="st1"
   d="M 211.3,0 H 11.2 C 5,0 0,5 0,11.2 V 42.9 C 0,49 5,54.1 11.2,54.1 h 200.1 c 6.2,0 11.2,-5 11.2,-11.2 V 11.2 C 222.5,5 217.5,0 211.3,0 Z m 8,42.9 c 0,4.4 -3.6,7.9 -8,7.9 H 11.2 c -4.4,0 -8,-3.6 -8,-7.9 V 11.2 c 0,-4.4 3.6,-8 8,-8 h 200.1 c 4.4,0 8,3.6 8,8 z"
   id="path11" />
			<linearGradient
   id="SVGID_2_"
   gradientUnits="userSpaceOnUse"
   x1="111.2621"
   y1="-0.24699999"
   x2="111.2621"
   y2="33.677601">
				<stop
   offset="0"
   style="stop-color:#FCAB31"
   id="stop13" />
				<stop
   offset="1"
   style="stop-color:#7F4601"
   id="stop15" />
			</linearGradient>
			<path
   class="st2"
   d="m 222.5,11.2 v 14.2 c 0,3.1 -1.2,5.8 -3.2,7.9 v -22 c 0,-4.4 -3.6,-8 -8,-8 H 11.2 c -4.4,0 -8,3.6 -8,8 v 22 C 1.2,31.3 0,28.5 0,25.4 V 11.2 C 0,5 5,0 11.2,0 h 200.1 c 6.2,0 11.2,5 11.2,11.2 z"
   id="path18" />
		</g>
	</g>
	<g
   id="g34">
		<g
   id="g32">
			
			
			
			
		</g>
	</g>
</g>
<g
   aria-label="Continue"
   id="text1957"
   style="font-size:30.874px;line-height:1.25;font-family:'Roman SD';-inkscape-font-specification:'Roman SD';fill:url(#linearGradient6785);stroke-width:0.771851"
   transform="matrix(0.69809417,0,0,0.69809417,33.027287,7.137808)"><path
     d="m 39.361899,18.111299 q -1.512826,1.605448 -2.31555,4.47673 -0.03087,0 -0.123496,0.03087 -0.06175,0.03087 -0.09262,0.03087 0.06175,-0.30874 0.06175,-0.61748 0,-1.975936 -2.871282,-3.272644 -2.31555,-1.018842 -4.661974,-1.018842 -2.253802,0 -4.01362,0.92622 -2.31555,1.204086 -2.655164,3.581384 -0.15437,0.123496 -0.30874,0.864472 -0.123496,0.740976 -0.123496,1.142338 0,-0.09262 0.03087,0.30874 0.03087,0.401363 0.03087,1.204087 0.432236,4.47673 4.01362,7.811122 3.457888,3.24177 7.471508,3.24177 1.667196,0 3.025652,-0.493984 1.358456,-0.493984 1.358456,-0.493984 0.185244,0 0.339614,0.216118 -0.216118,0.339614 -2.099432,1.018842 -3.828376,1.420204 -5.125084,1.420204 -0.06175,0 -0.710102,0.03087 -0.648354,0.03087 -0.740976,0.03087 -4.569352,0 -7.656752,-3.488762 -2.871282,-3.303518 -2.871282,-7.687626 0,-3.735755 1.296708,-5.588195 1.69807,-2.46992 4.754596,-3.85925 2.716912,-1.23496 5.495572,-1.23496 -0.03087,0 3.272644,0.15437 l 5.217706,1.018842 z"
     id="path11472"
     style="fill:url(#linearGradient11535)" /><path
     d="m 65.882623,25.922422 q 0,5.001588 -2.963904,8.737342 -3.303518,4.198864 -8.613846,4.198864 h -0.648354 q -4.32236,0 -7.131894,-2.16118 -3.303518,-2.500794 -3.982746,-7.625878 -0.09262,-0.648354 0,-1.38933 0.710102,-5.927809 4.353234,-8.860839 3.149148,-2.500794 8.088988,-2.500794 4.816344,0 7.841996,2.686038 3.056526,2.686038 3.056526,6.915777 z m -3.025652,3.735754 q 0,-4.507604 -2.840408,-8.181611 -3.210896,-4.044494 -8.088988,-4.044494 -3.210896,0 -5.09421,2.192054 -1.790692,2.037684 -1.790692,5.125085 0,3.519636 1.883314,6.421792 1.975936,3.0874 5.773438,4.970714 2.377298,1.173212 3.951872,1.173212 h 0.61748 q 2.192054,0 3.828376,-1.636322 1.69807,-1.759818 1.728944,-4.353234 0,-0.77185 0.03087,-1.265834 0,-0.46311 0,-0.401362 z"
     id="path11474"
     style="fill:url(#linearGradient11537)" /><path
     d="m 95.953852,16.907213 q -0.277866,0.216118 -1.265834,0.46311 -1.142338,0.246992 -1.512826,0.46311 -0.648354,6.668784 -0.648354,7.070147 v 1.451078 q 0,0.77185 -0.339614,6.298296 -0.185244,2.840408 -0.370488,5.680816 -0.06175,0.06175 -0.185244,0.06175 -0.09262,0 -1.574574,-1.451078 -5.526446,-5.433824 -8.613846,-8.613846 -4.754596,-4.878093 -6.699658,-6.823155 -0.216118,3.982747 -0.03087,9.941429 0,1.23496 0.30874,4.106242 0.09262,0.555732 0.15437,0.710102 0.123496,0.30874 0.370488,0.46311 0.77185,0.432236 1.574574,0.432236 0.524858,0 1.636322,0.185244 -0.03087,0 -2.346424,0.493984 -1.69807,0.339614 -2.840408,0.339614 -1.5437,0 -2.346424,-0.185244 0.06175,-0.06175 0.987968,-0.710102 0.61748,-0.432236 0.802724,-1.049716 0.648354,-2.31555 0.648354,-8.088988 v -1.728944 l 0.216118,-3.766629 q 0,-2.068558 -0.46311,-3.056526 -0.710102,-1.512826 -2.902156,-2.46992 1.914188,-0.216118 5.619068,-0.46311 2.439046,3.735754 7.193642,8.768217 1.821566,1.883314 7.780248,7.749374 0.09262,-0.123496 0.09262,-0.370488 l -0.15437,-4.754596 q -0.185244,-3.488763 -0.370488,-6.792281 -0.03087,-1.08059 -0.246992,-3.24177 -0.03087,-0.185244 -0.401362,-0.185244 0,0 -0.77185,0.06175 -0.77185,0.03087 -1.142338,0.03087 0.216118,-0.15437 1.667196,-0.648354 1.636322,-0.555732 2.284676,-0.555732 z"
     id="path11476"
     style="fill:url(#linearGradient11539)" /><path
     d="m 119.66506,16.536725 q -0.27787,0.802724 -0.55573,1.605448 -0.247,0.802724 -0.247,1.481952 v 0.370488 q 0,0 -0.0617,0.03087 -0.0309,0.03087 -0.1235,0.03087 -0.0926,0 -0.27787,-0.555732 -0.21611,-0.679228 -0.30874,-0.833598 -0.52485,-0.864472 -5.09421,-0.864472 -0.0617,0 -0.49398,0.03087 -0.43224,0.03087 -0.64835,0.06175 -0.27787,0.524858 -0.37049,2.840408 -0.0926,1.667196 -0.15437,3.334392 l -0.1235,6.730533 0.0618,4.01362 q 0.0309,0.15437 0.0926,1.327582 0.0618,0.802724 0.37049,1.296708 0.15437,0.277866 0.8336,0.46311 0.92622,0.246992 0.95709,0.246992 -0.15437,0.123496 -0.49398,0.185244 l -3.2109,-0.15437 q -0.21612,0 -2.16118,0.15437 -0.24699,0 -0.5866,0.123496 l -0.61748,-0.06175 q 0.0617,-0.185244 0.40136,-0.277866 0.33961,-0.09262 0.49398,-0.246992 0.33962,-0.493984 0.46311,-1.821566 0.15437,-1.358456 0.40136,-4.692848 l 0.0926,-8.768217 q 0,-4.600226 -0.49399,-4.600226 -0.67923,0 -2.87128,0.30874 -1.91419,0.30874 -2.3773,0.432236 -0.43223,0.09262 -0.98797,0.586606 -0.52485,0.493984 -0.7101,1.049716 h -0.27786 v -0.216118 q 0,-0.06175 0.30874,-0.833598 0.21611,-0.740976 0.43223,-1.481952 0.46311,-1.265834 0.89535,-1.265834 l 7.74937,0.246992 h 5.74257 q 1.97593,0 3.51963,-0.370488 z"
     id="path11478"
     style="fill:url(#linearGradient11541)" /><path
     d="m 127.26003,38.117652 q 0,0.06175 -0.1235,0.246992 h -4.81634 l 0.55573,-5.217706 0.12349,-5.032462 q 0,-6.946651 -0.0309,-6.915777 0,-0.277866 -0.0618,-0.77185 -0.0309,-0.987968 -0.0618,-2.00681 -0.0309,-1.049716 -0.86447,-1.821566 0.30874,0 1.01884,-0.03087 0.80273,0 0.74098,0 1.14234,0 1.94506,-0.123496 0.8336,-0.15437 0.7101,-0.15437 h 0.247 q -0.49399,4.137116 -0.61748,9.663563 l -0.0618,9.87968 q 0.0618,0.493984 0.12349,0.987968 0.0618,0.61748 0.33962,0.957094 0,0.03087 0.8336,0.339614 z"
     id="path11480"
     style="fill:url(#linearGradient11543)" /><path
     d="m 158.10311,16.907213 q -0.27786,0.216118 -1.26583,0.46311 -1.14234,0.246992 -1.51283,0.46311 -0.64835,6.668784 -0.64835,7.070147 v 1.451078 q 0,0.77185 -0.33961,6.298296 -0.18525,2.840408 -0.37049,5.680816 -0.0618,0.06175 -0.18525,0.06175 -0.0926,0 -1.57457,-1.451078 -5.52645,-5.433824 -8.61385,-8.613846 -4.75459,-4.878093 -6.69965,-6.823155 -0.21612,3.982747 -0.0309,9.941429 0,1.23496 0.30874,4.106242 0.0926,0.555732 0.15437,0.710102 0.1235,0.30874 0.37049,0.46311 0.77185,0.432236 1.57457,0.432236 0.52486,0 1.63633,0.185244 -0.0309,0 -2.34643,0.493984 -1.69807,0.339614 -2.84041,0.339614 -1.5437,0 -2.34642,-0.185244 0.0617,-0.06175 0.98797,-0.710102 0.61748,-0.432236 0.80272,-1.049716 0.64836,-2.31555 0.64836,-8.088988 v -1.728944 l 0.21611,-3.766629 q 0,-2.068558 -0.46311,-3.056526 -0.7101,-1.512826 -2.90215,-2.46992 1.91419,-0.216118 5.61907,-0.46311 2.43904,3.735754 7.19364,8.768217 1.82156,1.883314 7.78025,7.749374 0.0926,-0.123496 0.0926,-0.370488 l -0.15437,-4.754596 q -0.18525,-3.488763 -0.37049,-6.792281 -0.0309,-1.08059 -0.24699,-3.24177 -0.0309,-0.185244 -0.40136,-0.185244 0,0 -0.77185,0.06175 -0.77185,0.03087 -1.14234,0.03087 0.21612,-0.15437 1.66719,-0.648354 1.63633,-0.555732 2.28468,-0.555732 z"
     id="path11482"
     style="fill:url(#linearGradient11545)" /><path
     d="m 184.12987,37.71629 q -0.8336,0.15437 -1.63632,0.15437 0.0309,0 -0.43224,0.03087 -0.40136,0.03087 -0.64835,0 l -2.40817,0.370488 q -0.33962,-0.123496 -0.33962,-0.957094 0,-0.61748 0,-1.204086 -1.82156,0.957094 -2.99478,1.420204 -0.52485,0.185244 -2.22292,0.586606 -1.91419,0.432236 -2.59342,0.432236 h -0.98797 q -3.55051,0 -4.84722,-1.5437 -1.26583,-1.5437 -1.26583,-5.372076 0,-0.864472 0.0309,-1.975936 l 0.1235,-8.984335 q -0.1235,-1.142338 -0.27787,-1.667196 -0.27786,-1.018842 -0.89534,-1.296708 v -0.246992 q 2.19205,-0.15437 4.35323,-0.586606 v 0.339614 q 0,0.06175 -0.0926,0.679228 -0.0926,0.61748 -0.1235,0.895346 -0.15437,2.562542 -0.15437,2.253802 v 1.728944 q 0,0.06175 -0.0617,0.586606 -0.0618,0.493984 -0.0618,0.586606 v 5.711691 q 0,0.957094 0.49398,2.716912 0.49399,1.85244 0.8336,2.037684 1.04972,1.636322 2.56254,2.16118 1.01884,0.370488 2.84041,0.370488 2.2538,0 3.48876,-0.710102 1.72895,-0.987968 2.09943,-3.581384 l 0.18525,-7.162768 -0.0617,-5.032463 q -0.0309,-0.123496 -0.1235,-1.790692 -0.0617,-1.451078 -1.38933,-1.605448 0.0926,-0.246992 2.06856,-0.370488 2.3773,-0.123496 2.43905,-0.15437 0.18524,0.185244 0.18524,0.246992 l -0.61748,5.86606 q 0,1.667196 -0.12349,4.970715 -0.0926,3.303518 -0.0926,4.93984 0,0.987968 0.27787,2.377298 0.21612,1.265834 0.40136,1.574574 0.27787,0.524858 0.9571,0.77185 0.98796,0.339614 1.11146,0.432236 z"
     id="path11484"
     style="fill:url(#linearGradient11547)" /><path
     d="m 205.12414,36.728322 q -0.7101,0.524858 -1.26583,1.667196 -0.46311,0.895346 -0.89535,1.790692 -0.0309,-0.432236 -0.21612,-1.173212 -0.40136,-0.802724 -3.674,-0.802724 l -8.6756,0.216118 q 0.21612,-0.339614 0.40137,-1.667196 0.21611,-1.327582 0.21611,-2.222928 l 0.21612,-3.643132 V 27.06476 q 0,-0.03087 -0.0309,-0.586606 -0.0309,-0.555732 -0.0309,-0.61748 v -1.945063 q 0,-0.833598 -0.12349,-2.93303 -0.15437,-2.840408 -0.37049,-3.025652 -0.43224,-0.339614 -0.95709,-0.370488 -0.89535,-0.06175 -0.9571,-0.06175 0,-0.03087 0.0309,-0.09262 0.0309,-0.09262 0.0309,-0.123496 l 14.35641,-0.493984 q -0.43224,0.710102 -0.95709,1.945062 -0.0926,0.216118 -0.27787,0.740976 -0.0309,0 -0.1235,-0.03087 -0.0617,-0.03087 -0.0926,-0.03087 0.0926,-0.185244 0.0926,-0.370488 0,-0.524858 -0.86447,-0.864472 -0.67923,-0.30874 -1.23496,-0.30874 -0.18524,0 -0.24699,0.123496 -0.80272,-0.432236 -3.45789,-0.432236 -0.98797,0 -1.26583,0.123496 -0.24699,0.09262 -0.27787,0.895346 -0.0309,0.61748 -0.0309,1.23496 -0.0618,1.636322 -0.24699,4.878093 0,1.636322 -0.0309,1.85244 0.9571,0.15437 2.71691,0.15437 2.90216,0 5.49558,-0.895346 0.12349,0.123496 0.12349,0.216118 0,0.06175 -0.43223,1.142338 -0.49399,1.204086 -0.55574,1.451078 -0.15437,0 -0.30874,-0.30874 -0.12349,-0.339614 -0.27786,-0.46311 -1.01884,-0.648354 -4.7546,-0.648354 -0.30874,0 -1.88331,0.185244 -0.15437,0.246992 -0.15437,0.586606 v 6.854028 q 0,0.03087 0.0309,0.524858 0.0309,0.46311 0.0309,0.679228 0,0.586606 0.0926,1.018842 1.5437,0.432236 4.16799,0.432236 h 1.29671 q 0.95709,0 2.74778,-0.370488 1.82157,-0.401362 2.31555,-0.740976 l 0.27787,0.06175 z"
     id="path11486"
     style="fill:url(#linearGradient11549)" /></g></svg>
