<?xml version="1.0" encoding="UTF-8" standalone="no"?>
<!-- Generator: Adobe Illustrator 25.0.1, SVG Export Plug-In . SVG Version: 6.00 Build 0)  -->

<svg
   version="1.1"
   id="Layer_1"
   x="0px"
   y="0px"
   viewBox="0 0 33.7 24.1"
   style="enable-background:new 0 0 33.7 24.1;"
   xml:space="preserve"
   sodipodi:docname="door.svg"
   inkscape:version="1.1.1 (3bf5ae0d25, 2021-09-20)"
   xmlns:inkscape="http://www.inkscape.org/namespaces/inkscape"
   xmlns:sodipodi="http://sodipodi.sourceforge.net/DTD/sodipodi-0.dtd"
   xmlns:xlink="http://www.w3.org/1999/xlink"
   xmlns="http://www.w3.org/2000/svg"
   xmlns:svg="http://www.w3.org/2000/svg"><defs
   id="defs85"><linearGradient
     inkscape:collect="always"
     xlink:href="#SVGID_5_"
     id="linearGradient1040"
     x1="26.871866"
     y1="-35.694542"
     x2="5.9000001"
     y2="1.8"
     gradientUnits="userSpaceOnUse"
     gradientTransform="matrix(0.66669342,0,0,0.66669342,4.0834784,27.007028)" /></defs><sodipodi:namedview
   id="namedview83"
   pagecolor="#ffffff"
   bordercolor="#666666"
   borderopacity="1.0"
   inkscape:pageshadow="2"
   inkscape:pageopacity="0.0"
   inkscape:pagecheckerboard="0"
   showgrid="false"
   inkscape:zoom="4.2062314"
   inkscape:cx="5.586949"
   inkscape:cy="-6.537919"
   inkscape:window-width="1536"
   inkscape:window-height="793"
   inkscape:window-x="-8"
   inkscape:window-y="-8"
   inkscape:window-maximized="1"
   inkscape:current-layer="Layer_1" />
<style
   type="text/css"
   id="style2">
	.st0{fill:url(#SVGID_1_);}
	.st1{fill:url(#SVGID_2_);}
	.st2{fill:url(#SVGID_3_);}
	.st3{fill:url(#SVGID_4_);}
	.st4{fill:#7F4601;}
	.st5{fill:url(#SVGID_5_);}
	.st6{fill:url(#SVGID_6_);}
	.st7{fill:url(#SVGID_7_);}
	.st8{fill:url(#SVGID_8_);}
</style>
<g
   id="g80">
	<g
   id="g78">
		<g
   id="g60">
			<g
   id="g31">
				<g
   id="g11">
					
						<linearGradient
   id="SVGID_1_"
   gradientUnits="userSpaceOnUse"
   x1="-417.95499"
   y1="2.7421999"
   x2="-417.95499"
   y2="21.3762"
   gradientTransform="matrix(-1,0,0,1,-410.2119,0)">
						<stop
   offset="0"
   style="stop-color:#FCAB31"
   id="stop4" />
						<stop
   offset="1"
   style="stop-color:#7F4601"
   id="stop6" />
					</linearGradient>
					
				</g>
				<g
   id="g20">
					
						<linearGradient
   id="SVGID_2_"
   gradientUnits="userSpaceOnUse"
   x1="-413.30069"
   y1="3.4830549e-07"
   x2="-413.30069"
   y2="24.118401"
   gradientTransform="matrix(-1,0,0,1,-410.2119,0)">
						<stop
   offset="0"
   style="stop-color:#FCAB31"
   id="stop13" />
						<stop
   offset="1"
   style="stop-color:#7F4601"
   id="stop15" />
					</linearGradient>
					
				</g>
				<g
   id="g29">
					
						<linearGradient
   id="SVGID_3_"
   gradientUnits="userSpaceOnUse"
   x1="-422.6459"
   y1="5.6725001"
   x2="-422.6459"
   y2="18.446501"
   gradientTransform="matrix(-1,0,0,1,-410.2119,0)">
						<stop
   offset="0"
   style="stop-color:#FCAB31"
   id="stop22" />
						<stop
   offset="1"
   style="stop-color:#7F4601"
   id="stop24" />
					</linearGradient>
					
				</g>
			</g>
			
				<linearGradient
   id="SVGID_4_"
   gradientUnits="userSpaceOnUse"
   x1="-436.11819"
   y1="1.1896"
   x2="-436.11819"
   y2="22.927299"
   gradientTransform="matrix(-1,0,0,1,-410.2119,0)">
				<stop
   offset="0"
   style="stop-color:#FCAB31"
   id="stop33" />
				<stop
   offset="1"
   style="stop-color:#7F4601"
   id="stop35" />
			</linearGradient>
			
			<g
   id="g44">
				
				
			</g>
			
				<linearGradient
   id="SVGID_5_"
   gradientUnits="userSpaceOnUse"
   x1="-436.1199"
   y1="1.1914001"
   x2="-436.1199"
   y2="15.4127"
   gradientTransform="matrix(-1,0,0,1,-410.2119,0)">
				<stop
   offset="0"
   style="stop-color:#FCAB31"
   id="stop46" />
				<stop
   offset="1"
   style="stop-color:#7F4601"
   id="stop48" />
			</linearGradient>
			
			
				<linearGradient
   id="SVGID_6_"
   gradientUnits="userSpaceOnUse"
   x1="-436.1199"
   y1="1.1914001"
   x2="-436.1199"
   y2="15.4127"
   gradientTransform="matrix(-1,0,0,1,-410.2119,0)">
				<stop
   offset="0"
   style="stop-color:#FCAB31"
   id="stop53" />
				<stop
   offset="1"
   style="stop-color:#7F4601"
   id="stop55" />
			</linearGradient>
			
		</g>
		<g
   id="g76">
			
				<linearGradient
   id="SVGID_7_"
   gradientUnits="userSpaceOnUse"
   x1="-436.11819"
   y1="15.0813"
   x2="-436.11819"
   y2="19.7248"
   gradientTransform="matrix(-1,0,0,1,-410.2119,0)">
				<stop
   offset="0"
   style="stop-color:#FCAB31"
   id="stop62" />
				<stop
   offset="1"
   style="stop-color:#F9A930"
   id="stop64" />
			</linearGradient>
			
			
				<linearGradient
   id="SVGID_8_"
   gradientUnits="userSpaceOnUse"
   x1="-436.11819"
   y1="1.1896"
   x2="-436.11819"
   y2="8.1785002"
   gradientTransform="matrix(-1,0,0,1,-410.2119,0)">
				<stop
   offset="0"
   style="stop-color:#FCAB31"
   id="stop69" />
				<stop
   offset="1"
   style="stop-color:#F9A930"
   id="stop71" />
			</linearGradient>
			
		</g>
	</g>
</g>
<path
   style="fill:url(#linearGradient1040);fill-opacity:1;stroke-width:0.0449655"
   d="m 15.682417,23.545247 c -0.235041,-0.129257 -0.24524,-0.176795 -0.246309,-1.148125 -0.001,-0.895706 3.6e-4,-0.909756 0.107504,-1.034203 l 0.108506,-0.126162 5.141199,-0.02248 5.141197,-0.02248 0.257634,-0.126512 c 0.308246,-0.151368 0.508148,-0.378608 0.598,-0.679785 0.09976,-0.334357 0.09976,-16.2640201 0,-16.5983769 -0.08985,-0.3011772 -0.289754,-0.5284177 -0.598,-0.6797831 L 25.934514,2.9808274 20.793317,2.9583597 15.652118,2.9358921 15.543612,2.8097297 c -0.107031,-0.124449 -0.108494,-0.1384969 -0.107504,-1.0342015 10e-4,-0.97704262 0.01192,-1.02597659 0.254593,-1.15008828 0.07063,-0.0361288 1.531242,-0.0502288 5.200783,-0.0502288 5.501059,0 5.403147,-0.00387 6.065615,0.23774095 0.474751,0.17312563 0.788015,0.38164403 1.23031,0.81894353 0.455699,0.4505461 0.700365,0.8390531 0.906162,1.4388911 l 0.123416,0.359722 0.01192,8.5092943 c 0.01293,9.228611 0.0238,8.781678 -0.228954,9.407461 -0.364564,0.902571 -1.168221,1.693491 -2.046041,2.013619 -0.659257,0.240421 -0.563048,0.236694 -6.070718,0.235221 -3.62974,-9.59e-4 -5.136916,-0.0157 -5.200782,-0.05082 z M 15.314282,18.0138 c -0.07882,-0.02097 -0.185051,-0.0912 -0.236068,-0.156062 -0.08908,-0.113243 -0.09276,-0.17213 -0.09276,-1.483304 v -1.365379 h -4.16153 c -4.5199706,0 -4.3465987,0.0095 -4.4630616,-0.246053 -0.039644,-0.08701 -0.05372,-0.789592 -0.05372,-2.681043 0,-2.7810291 -0.00254,-2.7514132 0.2460534,-2.8646812 0.088694,-0.040407 1.1477619,-0.053722 4.2750782,-0.053722 h 4.15718 V 7.8021175 c 0,-1.1858875 0.0094,-1.374937 0.07332,-1.4661247 0.103114,-0.1472133 0.334669,-0.2358661 0.494673,-0.1893883 0.07093,0.020601 1.312677,0.7210409 2.759437,1.5565271 1.44676,0.835487 3.59161,2.0738786 4.766328,2.7519834 1.174721,0.678107 2.176323,1.272506 2.225785,1.320889 0.06593,0.06451 0.08993,0.147272 0.08993,0.310301 0,0.162815 -0.02406,0.246046 -0.08993,0.310937 -0.04947,0.04873 -1.06118,0.648947 -2.248266,1.333811 -1.187087,0.684864 -3.331932,1.92297 -4.766327,2.751347 -1.434396,0.828379 -2.658576,1.520405 -2.720406,1.537838 -0.06183,0.01744 -0.1769,0.01454 -0.255719,-0.0065 z"
   id="path932" /></svg>
