<?xml version="1.0" encoding="UTF-8"?>
<!-- Generator: Adobe Illustrator 25.0.1, SVG Export Plug-In . SVG Version: 6.00 Build 0)  -->
<svg version="1.1" id="Layer_1" xmlns="http://www.w3.org/2000/svg" xmlns:xlink="http://www.w3.org/1999/xlink" x="0px" y="0px" viewBox="0 0 1928.9 96" style="enable-background:new 0 0 1928.9 96;" xml:space="preserve">
<style type="text/css">
	.st0{fill:#0B3D33;}
	.st1{fill:#FDAC31;}
	.st2{fill:#1C8E78;}
	.st3{fill:#E53938;}
	.st4{fill:#8931DD;}
	.st5{fill:none;stroke:#0B3D33;stroke-width:2.6194;stroke-miterlimit:10;}
</style>
<g>
	<g>
		<polygon class="st0" points="1204.2,34.8 1207.9,32.4 1204.1,26 1200.3,28.2   "/>
		<path class="st1" d="M1194.9,12.5l8.2,7.2c2.2,1.7,2.4,4,2.4,4c0.2,1.4-0.9,3.2-2.8,4.3c-1.9,1.1-3.9,1.2-5.1,0.3    c0,0-2-1.3-2.3-4.1l-2.3-10.6C1192.9,12.8,1194.3,12,1194.9,12.5z"/>
	</g>
	<g>
		<polygon class="st0" points="1167.8,41.7 1164.1,44.2 1168,50.5 1171.8,48.2   "/>
		<g>
			<path class="st2" d="M1177.5,63.9l-8.3-7c-2.2-1.6-2.5-4-2.5-4c-0.2-1.4,0.8-3.2,2.7-4.4c1.8-1.1,3.9-1.3,5.1-0.5     c0,0,2,1.3,2.4,4l2.5,10.6C1179.5,63.5,1178.2,64.3,1177.5,63.9z"/>
		</g>
	</g>
	<g>
		<rect x="229.4" y="49.7" transform="matrix(0.992 -0.1262 0.1262 0.992 -4.9768 29.6727)" class="st0" width="4.4" height="8.8"/>
		<path class="st3" d="M227.9,33.7l-2.1,10.7c-0.7,2.7,0.5,4.7,0.5,4.7c0.7,1.3,2.7,2,4.8,1.7c2.2-0.3,3.8-1.5,4.2-2.8    c0,0,0.7-2.3-0.6-4.7l-4.7-9.8C229.7,32.7,228.1,32.9,227.9,33.7z"/>
	</g>
	<g>
		
			<rect x="90.7" y="27.7" transform="matrix(-0.8814 0.4723 -0.4723 -0.8814 189.9524 16.5262)" class="st0" width="4.4" height="8.8"/>
		<path class="st3" d="M103.7,49.8l-1.9-10.7c-0.3-2.8-2.2-4.2-2.2-4.2c-1.1-0.9-3.2-0.9-5.1,0.1c-1.9,1-3.1,2.7-2.9,4.2    c0,0,0.1,2.4,2.3,4.1l7.9,7.5C102.3,51.4,103.8,50.7,103.7,49.8z"/>
	</g>
	<g>
		
			<rect x="391.9" y="56.3" transform="matrix(-0.543 0.8398 -0.8398 -0.543 659.0331 -237.2947)" class="st0" width="4.4" height="8.8"/>
		<path class="st3" d="M412.1,71l-6.8-8.5c-1.6-2.3-3.9-2.6-3.9-2.6c-1.4-0.3-3.2,0.8-4.4,2.6c-1.2,1.8-1.4,3.9-0.6,5.1    c0,0,1.2,2,4,2.5l10.5,2.7C411.7,73,412.6,71.7,412.1,71z"/>
	</g>
	<g>
		<polygon class="st0" points="517.1,54.8 512.4,55.4 514.4,46.8 518.7,47.9   "/>
		<path class="st3" d="M519.3,31.2l-5.7,9.2c-1.6,2.2-1.1,4.5-1.1,4.5c0.2,1.4,1.8,2.8,3.9,3.3c2.1,0.5,4.1,0,5-1.2    c0,0,1.5-1.8,1-4.6l-0.9-10.8C521.3,30.9,519.8,30.6,519.3,31.2z"/>
	</g>
	<g>
		<polygon class="st0" points="650.9,48.4 646.2,49.1 648.3,40.5 652.6,41.5   "/>
		<path class="st3" d="M653.1,24.9l-5.7,9.2c-1.6,2.2-1.1,4.5-1.1,4.5c0.2,1.4,1.8,2.8,3.9,3.3c2.1,0.5,4.1,0,5-1.2    c0,0,1.5-1.8,1-4.6l-0.9-10.8C655.2,24.6,653.6,24.2,653.1,24.9z"/>
	</g>
	<g>
		<polygon class="st0" points="777.2,65.5 777.8,70.1 773.5,71.7 771.9,67.6   "/>
		<path class="st3" d="M757.9,76.6l10.8-0.6c2.8,0.1,4.4-1.6,4.4-1.6c1-1,1.3-3.1,0.5-5.1c-0.8-2-2.3-3.4-3.8-3.4    c0,0-2.4-0.2-4.4,1.7l-8.4,6.9C756.5,75.1,757.1,76.6,757.9,76.6z"/>
	</g>
	<g>
		<polygon class="st0" points="689.3,53 693.2,50.9 697.3,58.7 693.4,60.8   "/>
		<path class="st1" d="M704,73.7L702.1,63c-0.3-2.8-2.1-4.2-2.1-4.2c-1.1-0.9-3.2-0.9-5.1,0.1c-1.9,1-3.1,2.7-3,4.2    c0,0,0.1,2.4,2.2,4.1l7.8,7.5C702.6,75.3,704,74.5,704,73.7z"/>
	</g>
	<g>
		<polygon class="st0" points="259.6,64.7 265.8,64.9 271.9,71.3 268.6,74.4   "/>
		<path class="st4" d="M282.2,84l-4.5-9.9c-1-2.6-3.1-3.5-3.1-3.5c-1.3-0.6-3.3-0.1-4.9,1.4c-1.6,1.5-2.3,3.4-1.8,4.8    c0,0,0.7,2.3,3.2,3.4l9.5,5.2C281.3,85.9,282.5,84.8,282.2,84z"/>
	</g>
	<g>
		<polygon class="st0" points="38.1,35.1 32,36.4 27.2,43.8 31,46.2   "/>
		<path class="st4" d="M19.3,58.1L22,47.6c0.5-2.7,2.5-4,2.5-4c1.2-0.8,3.3-0.6,5.1,0.5c1.8,1.2,2.8,3,2.6,4.4c0,0-0.3,2.3-2.6,3.9    l-8.4,6.8C20.5,59.8,19.1,58.9,19.3,58.1z"/>
	</g>
	<g>
		<polygon class="st0" points="452.4,72.1 446.5,74.3 438.5,70.6 440.4,66.6   "/>
		<path class="st4" d="M424.2,62.7l7.9,7.4c1.9,2,4.2,2,4.2,2c1.4,0.1,3.1-1.2,4-3.2c0.9-2,0.8-4-0.2-5.1c0,0-1.5-1.8-4.3-1.9    l-10.8-1.3C424.3,60.7,423.6,62.1,424.2,62.7z"/>
	</g>
	<g>
		<polygon class="st0" points="590.6,40 596.8,41.2 604,36.1 601.5,32.5   "/>
		<path class="st4" d="M616.8,25.9l-6.5,8.7c-1.5,2.3-3.8,2.7-3.8,2.7c-1.4,0.3-3.3-0.6-4.5-2.4c-1.2-1.8-1.5-3.8-0.7-5.1    c0,0,1.2-2.1,3.9-2.6l10.4-3.1C616.3,23.9,617.2,25.2,616.8,25.9z"/>
	</g>
	<g>
		<polygon class="st0" points="795.5,80.8 788.3,81.3 798.2,87.9 800.7,84.2   "/>
		<path class="st4" d="M812.4,95.9l-10.5-2.9c-2.7-0.5-3.9-2.5-3.9-2.5c-0.8-1.2-0.6-3.3,0.6-5.1c1.2-1.8,3-2.8,4.4-2.5    c0,0,2.3,0.3,3.9,2.6l6.7,8.5C814.1,94.8,813.2,96.1,812.4,95.9z"/>
	</g>
	<g>
		<polygon class="st0" points="902.8,40.4 906.6,38.1 903.1,31.6 899.2,33.7   "/>
		<g>
			<path class="st2" d="M894.3,17.8l7.9,7.4c2.2,1.7,2.3,4.1,2.3,4.1c0.2,1.4-1,3.2-2.9,4.2c-1.9,1-4,1.1-5.1,0.2     c0,0-1.9-1.4-2.2-4.2l-2-10.7C892.2,18.1,893.6,17.3,894.3,17.8z"/>
		</g>
	</g>
	<g>
		<polygon class="st0" points="866.1,38 860.8,36.1 854.6,40.2 857,43.9   "/>
		<path class="st3" d="M841.6,50.1l6.7-8.5c1.6-2.3,3.9-2.6,3.9-2.6c1.4-0.3,3.2,0.7,4.4,2.5c1.2,1.8,1.4,3.9,0.6,5.1    c0,0-1.2,2-4,2.5L842.8,52C842,52.2,841.1,50.8,841.6,50.1z"/>
	</g>
	<g>
		<polygon class="st0" points="931.2,40.7 927,42.1 929,49.3 933.3,48.1   "/>
		<path class="st4" d="M934.5,64.7l-6.1-9c-1.7-2.2-1.3-4.5-1.3-4.5c0.2-1.4,1.7-2.9,3.8-3.5c2.1-0.6,4.1-0.2,5,1    c0,0,1.6,1.8,1.2,4.5l-0.5,10.8C936.5,64.9,935,65.3,934.5,64.7z"/>
	</g>
	<g>
		<polygon class="st0" points="1036.3,56.2 1040.6,54.9 1038.5,47.7 1034.3,48.9   "/>
		<g>
			<path class="st2" d="M1033.1,32.3l6.1,9c1.7,2.2,1.3,4.5,1.3,4.5c-0.2,1.4-1.7,2.9-3.8,3.5c-2.1,0.6-4.1,0.2-5-1     c0,0-1.6-1.8-1.2-4.5l0.5-10.8C1031,32,1032.5,31.6,1033.1,32.3z"/>
		</g>
	</g>
	<g>
		<polygon class="st0" points="1123.7,53.2 1128.1,52.8 1127.7,45.3 1123.2,45.6   "/>
		<path class="st3" d="M1125.6,29.1l4,10.1c1.2,2.5,0.3,4.7,0.3,4.7c-0.5,1.4-2.2,2.5-4.4,2.6c-2.2,0.1-4.1-0.7-4.7-2    c0,0-1.1-2.1-0.2-4.7l2.8-10.5C1123.6,28.5,1125.2,28.4,1125.6,29.1z"/>
	</g>
	<g>
		<polygon class="st0" points="952.4,42.7 956.6,44.1 959.2,37.1 955,35.5   "/>
		<path class="st3" d="M963.9,21.4l-0.4,10.9c0.1,2.8-1.6,4.4-1.6,4.4c-1,1.1-3.1,1.3-5.1,0.6c-2-0.8-3.4-2.3-3.5-3.7    c0,0-0.2-2.4,1.7-4.4l6.8-8.5C962.4,20,963.9,20.6,963.9,21.4z"/>
	</g>
	<g>
		<polygon class="st0" points="1002.6,51.7 998.3,50.5 996.2,57.7 1000.4,59   "/>
		<path class="st1" d="M992.5,73.6l-0.3-10.9c-0.3-2.8,1.3-4.5,1.3-4.5c0.9-1.1,3-1.5,5-0.9c2.1,0.6,3.6,2.1,3.7,3.5    c0,0,0.4,2.3-1.4,4.5l-6.2,8.9C994.2,74.9,992.6,74.5,992.5,73.6z"/>
	</g>
	<g>
		<polygon class="st0" points="1087.5,60.6 1082.5,59.2 1077,64.4 1080.1,67.6   "/>
		<path class="st4" d="M1065.9,76.4l5.2-9.6c1.1-2.5,3.4-3.3,3.4-3.3c1.4-0.5,3.3,0.1,4.8,1.7c1.5,1.6,2,3.6,1.5,4.9    c0,0-0.9,2.2-3.5,3.2l-9.8,4.6C1066.7,78.3,1065.6,77.1,1065.9,76.4z"/>
	</g>
	<g>
		<polygon class="st0" points="1220.7,31.4 1225,28.5 1231.8,31.5 1230,35.5   "/>
		<path class="st4" d="M1246.3,39.1l-8.1-7.3c-1.9-2-4.3-1.9-4.3-1.9c-1.4,0-3.1,1.3-4,3.3c-0.9,2-0.7,4.1,0.3,5.1    c0,0,1.6,1.8,4.3,1.9l10.8,1C1246.2,41.1,1246.9,39.7,1246.3,39.1z"/>
	</g>
	<g>
		<polygon class="st0" points="812,42.1 816.9,41.2 818.4,35.8 814.1,34.6   "/>
		<path class="st1" d="M821.7,19.8l0.5,10.8c0.3,2.8-1.2,4.5-1.2,4.5c-0.9,1.1-2.9,1.6-5,1c-2.1-0.6-3.6-2-3.8-3.4    c0,0-0.4-2.3,1.3-4.5l6-9C820,18.5,821.6,19,821.7,19.8z"/>
	</g>
	<g>
		<polygon class="st0" points="175.9,42.7 180.4,44.8 173.5,50.4 170.7,47   "/>
		<path class="st1" d="M160.1,59.8l10.2-3.9c2.7-0.8,3.7-2.9,3.7-2.9c0.7-1.3,0.3-3.3-1.1-5c-1.4-1.7-3.3-2.5-4.7-2.1    c0,0-2.3,0.6-3.6,3l-5.9,9.1C158.3,58.8,159.4,60.1,160.1,59.8z"/>
	</g>
	<g>
		<polygon class="st0" points="61.7,30.7 56.8,31.3 59.6,22.9 63.8,24.3   "/>
		<path class="st1" d="M65.8,7.8l-6.5,8.7c-1.8,2.1-1.5,4.4-1.5,4.4c0.1,1.4,1.5,2.9,3.6,3.6c2.1,0.7,4.1,0.3,5.1-0.7    c0,0,1.6-1.7,1.4-4.5l0-10.9C67.8,7.7,66.3,7.2,65.8,7.8z"/>
	</g>
	<g>
		<polygon class="st0" points="374,41.3 371.8,45.7 366.3,38.7 369.8,36   "/>
		<path class="st1" d="M357.1,25.2l3.7,10.2c0.8,2.7,2.9,3.7,2.9,3.7c1.3,0.7,3.3,0.3,5-1c1.7-1.3,2.5-3.2,2.2-4.6    c0,0-0.5-2.3-2.9-3.7l-9-6C358.2,23.4,356.9,24.4,357.1,25.2z"/>
	</g>
	<g>
		<polygon class="st0" points="477.8,66.8 481.8,63.8 488.4,66.9 486.5,70.9   "/>
		<path class="st1" d="M502.6,75l-7.8-7.6c-1.8-2.1-4.2-2.1-4.2-2.1c-1.4-0.1-3.1,1.1-4.1,3.1c-0.9,2-0.9,4,0.1,5.1    c0,0,1.5,1.8,4.3,2l10.8,1.4C502.5,77.1,503.2,75.6,502.6,75z"/>
	</g>
	<g>
		<rect x="130.1" y="23.5" transform="matrix(0.9868 -0.162 0.162 0.9868 -2.7738 21.7978)" class="st0" width="4.4" height="8.8"/>
		<g>
			<path class="st2" d="M127.8,7.6l-1.7,10.7c-0.6,2.7,0.7,4.6,0.7,4.6c0.8,1.2,2.7,1.9,4.9,1.5c2.1-0.4,3.8-1.6,4.1-3     c0,0,0.7-2.3-0.8-4.6l-5-9.6C129.6,6.6,128,6.8,127.8,7.6z"/>
		</g>
	</g>
	<g>
		
			<rect x="376.3" y="73.1" transform="matrix(-0.6807 -0.7326 0.7326 -0.6807 579.4236 407.6357)" class="st0" width="4.4" height="8.8"/>
		<g>
			<path class="st2" d="M364.1,92.5l9.9-4.5c2.6-1,3.5-3.1,3.5-3.1c0.6-1.3,0.1-3.3-1.4-4.9c-1.5-1.6-3.4-2.3-4.8-1.8     c0,0-2.3,0.7-3.4,3.2l-5.2,9.5C362.3,91.6,363.4,92.8,364.1,92.5z"/>
		</g>
	</g>
	<g>
		
			<rect x="547.8" y="46.5" transform="matrix(-0.8213 0.5705 -0.5705 -0.8213 1030.8535 -221.0807)" class="st0" width="4.4" height="8.8"/>
		<g>
			<path class="st2" d="M562.8,67.3l-3.1-10.4c-0.6-2.7-2.6-3.9-2.6-3.9c-1.2-0.8-3.3-0.5-5.1,0.7c-1.8,1.2-2.7,3.1-2.4,4.5     c0,0,0.4,2.3,2.7,3.8l8.7,6.5C561.7,69,563,68.1,562.8,67.3z"/>
		</g>
	</g>
	<g>
		
			<rect x="739.8" y="40.1" transform="matrix(0.9912 0.1325 -0.1325 0.9912 12.4466 -97.929)" class="st0" width="4.4" height="8.8"/>
		<g>
			<path class="st2" d="M743.6,23.9l-4.7,9.8c-1.4,2.4-0.7,4.6-0.7,4.6c0.4,1.4,2.1,2.6,4.2,2.9c2.2,0.3,4.1-0.4,4.8-1.7     c0,0,1.3-2,0.6-4.7l-2-10.7C745.6,23.4,744,23.1,743.6,23.9z"/>
		</g>
	</g>
	<g>
		
			<rect x="308.7" y="63.2" transform="matrix(0.9497 0.3132 -0.3132 0.9497 36.8171 -93.9947)" class="st0" width="4.4" height="8.8"/>
		<g>
			<path class="st2" d="M316.4,47.5l-6.5,8.7c-1.8,2.1-1.5,4.4-1.5,4.4c0.1,1.4,1.5,2.9,3.6,3.6c2.1,0.7,4.1,0.3,5.1-0.7     c0,0,1.6-1.7,1.4-4.5l0-10.9C318.4,47.4,316.9,46.9,316.4,47.5z"/>
		</g>
	</g>
	<g>
		<polygon class="st0" points="1352.1,34.8 1348.4,32.4 1352.2,26 1356,28.2   "/>
		<path class="st4" d="M1361.4,12.5l-8.2,7.2c-2.2,1.7-2.4,4-2.4,4c-0.2,1.4,0.9,3.2,2.8,4.3c1.9,1.1,3.9,1.2,5.1,0.3    c0,0,2-1.3,2.3-4.1l2.3-10.6C1363.4,12.8,1362,12,1361.4,12.5z"/>
	</g>
	<g>
		<polygon class="st0" points="1388.5,41.7 1392.2,44.2 1388.3,50.5 1384.5,48.2   "/>
		<path class="st1" d="M1378.8,63.9l8.3-7c2.2-1.6,2.5-4,2.5-4c0.2-1.4-0.8-3.2-2.7-4.4c-1.8-1.1-3.9-1.3-5.1-0.5c0,0-2,1.3-2.4,4    l-2.5,10.6C1376.8,63.5,1378.1,64.3,1378.8,63.9z"/>
	</g>
	<g>
		<polygon class="st0" points="1905.4,48.4 1910.1,49.1 1908,40.5 1903.7,41.5   "/>
		<path class="st3" d="M1903.2,24.9l5.7,9.2c1.6,2.2,1.1,4.5,1.1,4.5c-0.2,1.4-1.8,2.8-3.9,3.3c-2.1,0.5-4.1,0-5-1.2    c0,0-1.5-1.8-1-4.6l0.9-10.8C1901.1,24.6,1902.7,24.2,1903.2,24.9z"/>
	</g>
	<g>
		<polygon class="st0" points="1779.1,65.5 1778.5,70.1 1782.8,71.7 1784.4,67.6   "/>
		<path class="st3" d="M1798.4,76.6l-10.8-0.6c-2.8,0.1-4.4-1.6-4.4-1.6c-1-1-1.3-3.1-0.5-5.1c0.8-2,2.3-3.4,3.8-3.4    c0,0,2.4-0.2,4.4,1.7l8.4,6.9C1799.8,75.1,1799.2,76.6,1798.4,76.6z"/>
	</g>
	<g>
		<polygon class="st0" points="1867,53 1863.1,50.9 1859,58.7 1862.9,60.8   "/>
		<path class="st1" d="M1852.3,73.7l1.8-10.7c0.3-2.8,2.1-4.2,2.1-4.2c1.1-0.9,3.2-0.9,5.1,0.1c1.9,1,3.1,2.7,3,4.2    c0,0-0.1,2.4-2.2,4.1l-7.8,7.5C1853.7,75.3,1852.3,74.5,1852.3,73.7z"/>
	</g>
	<g>
		<polygon class="st0" points="1760.8,80.8 1768,81.3 1758.1,87.9 1755.6,84.2   "/>
		<path class="st4" d="M1743.9,95.9l10.5-2.9c2.7-0.5,3.9-2.5,3.9-2.5c0.8-1.2,0.6-3.3-0.6-5.1c-1.2-1.8-3-2.8-4.4-2.5    c0,0-2.3,0.3-3.9,2.6l-6.7,8.5C1742.2,94.8,1743.1,96.1,1743.9,95.9z"/>
	</g>
	<g>
		<polygon class="st0" points="1653.5,40.4 1649.7,38.1 1653.2,31.6 1657.1,33.7   "/>
		<g>
			<path class="st2" d="M1662,17.8l-7.9,7.4c-2.2,1.7-2.3,4.1-2.3,4.1c-0.2,1.4,1,3.2,2.9,4.2c1.9,1,4,1.1,5.1,0.2     c0,0,1.9-1.4,2.2-4.2l2-10.7C1664.1,18.1,1662.7,17.3,1662,17.8z"/>
		</g>
	</g>
	<g>
		<polygon class="st0" points="1690.2,38 1695.5,36.1 1701.7,40.2 1699.3,43.9   "/>
		<path class="st3" d="M1714.7,50.1l-6.7-8.5c-1.6-2.3-3.9-2.6-3.9-2.6c-1.4-0.3-3.2,0.7-4.4,2.5c-1.2,1.8-1.4,3.9-0.6,5.1    c0,0,1.2,2,4,2.5l10.5,2.8C1714.3,52.2,1715.2,50.8,1714.7,50.1z"/>
	</g>
	<g>
		<polygon class="st0" points="1625.1,40.7 1629.3,42.1 1627.3,49.3 1623,48.1   "/>
		<path class="st4" d="M1621.8,64.7l6.1-9c1.7-2.2,1.3-4.5,1.3-4.5c-0.2-1.4-1.7-2.9-3.8-3.5c-2.1-0.6-4.1-0.2-5,1    c0,0-1.6,1.8-1.2,4.5l0.5,10.8C1619.8,64.9,1621.3,65.3,1621.8,64.7z"/>
	</g>
	<g>
		<polygon class="st0" points="1520,56.2 1515.7,54.9 1517.8,47.7 1522,48.9   "/>
		<g>
			<path class="st2" d="M1523.3,32.3l-6.1,9c-1.7,2.2-1.3,4.5-1.3,4.5c0.2,1.4,1.7,2.9,3.8,3.5c2.1,0.6,4.1,0.2,5-1     c0,0,1.6-1.8,1.2-4.5l-0.5-10.8C1525.3,32,1523.8,31.6,1523.3,32.3z"/>
		</g>
	</g>
	<g>
		<polygon class="st0" points="1432.6,53.2 1428.2,52.8 1428.7,45.3 1433.1,45.6   "/>
		<path class="st3" d="M1430.7,29.1l-4,10.1c-1.2,2.5-0.3,4.7-0.3,4.7c0.5,1.4,2.2,2.5,4.4,2.6c2.2,0.1,4.1-0.7,4.7-2    c0,0,1.1-2.1,0.2-4.7l-2.8-10.5C1432.7,28.5,1431.1,28.4,1430.7,29.1z"/>
	</g>
	<g>
		<polygon class="st0" points="1279.7,24.6 1275.3,24.2 1275.7,16.7 1280.1,17   "/>
		<path class="st3" d="M1277.8,0.5l-4,10.1c-1.2,2.5-0.3,4.7-0.3,4.7c0.5,1.4,2.2,2.5,4.4,2.6c2.2,0.1,4.1-0.7,4.7-2    c0,0,1.1-2.1,0.2-4.7l-2.8-10.5C1279.8-0.1,1278.2-0.2,1277.8,0.5z"/>
	</g>
	<g>
		<polygon class="st0" points="1603.9,42.7 1599.7,44.1 1597.1,37.1 1601.3,35.5   "/>
		<path class="st3" d="M1592.4,21.4l0.4,10.9c-0.1,2.8,1.6,4.4,1.6,4.4c1,1.1,3.1,1.3,5.1,0.6c2-0.8,3.4-2.3,3.5-3.7    c0,0,0.2-2.4-1.7-4.4l-6.8-8.5C1593.9,20,1592.4,20.6,1592.4,21.4z"/>
	</g>
	<g>
		<polygon class="st0" points="1553.7,51.7 1558,50.5 1560.1,57.7 1555.9,59   "/>
		<path class="st1" d="M1563.8,73.6l0.3-10.9c0.3-2.8-1.3-4.5-1.3-4.5c-0.9-1.1-3-1.5-5-0.9c-2.1,0.6-3.6,2.1-3.7,3.5    c0,0-0.4,2.3,1.4,4.5l6.2,8.9C1562.1,74.9,1563.7,74.5,1563.8,73.6z"/>
	</g>
	<g>
		<polygon class="st0" points="1468.8,60.6 1473.8,59.2 1479.3,64.4 1476.2,67.6   "/>
		<path class="st4" d="M1490.4,76.4l-5.2-9.6c-1.1-2.5-3.4-3.3-3.4-3.3c-1.4-0.5-3.3,0.1-4.8,1.7c-1.5,1.6-2,3.6-1.5,4.9    c0,0,0.9,2.2,3.5,3.2l9.8,4.6C1489.6,78.3,1490.7,77.1,1490.4,76.4z"/>
	</g>
	<g>
		<polygon class="st0" points="1312,26.7 1317.1,25.6 1322.3,30.9 1319.1,34   "/>
		<g>
			<path class="st2" d="M1332.9,43.4l-4.7-9.8c-1-2.6-3.2-3.4-3.2-3.4c-1.3-0.6-3.3,0-4.9,1.5c-1.6,1.5-2.2,3.5-1.7,4.8     c0,0,0.8,2.2,3.3,3.3l9.6,5C1332,45.3,1333.2,44.2,1332.9,43.4z"/>
		</g>
	</g>
	<g>
		<polygon class="st0" points="1744.3,42.1 1739.4,41.2 1737.9,35.8 1742.2,34.6   "/>
		<path class="st1" d="M1734.6,19.8l-0.5,10.8c-0.3,2.8,1.2,4.5,1.2,4.5c0.9,1.1,2.9,1.6,5,1c2.1-0.6,3.6-2,3.8-3.4    c0,0,0.4-2.3-1.3-4.5l-6-9C1736.3,18.5,1734.7,19,1734.6,19.8z"/>
	</g>
	<g>
		
			<rect x="1812.1" y="40.1" transform="matrix(-0.9912 0.1325 -0.1325 -0.9912 3618.5164 -151.704)" class="st0" width="4.4" height="8.8"/>
		<g>
			<path class="st2" d="M1812.7,23.9l4.7,9.8c1.4,2.4,0.7,4.6,0.7,4.6c-0.4,1.4-2.1,2.6-4.2,2.9c-2.2,0.3-4.1-0.4-4.8-1.7     c0,0-1.3-2-0.6-4.7l2-10.7C1810.7,23.4,1812.3,23.1,1812.7,23.9z"/>
		</g>
	</g>
	<path class="st5" d="M1934.6,43.4c-115,29.8-176.5-32.9-179.3,22.5c-1.9,36.5,53.2,1.9-2.9-21.6c-55-23-216.3,14.8-275.5,14.8   c-53.4,0-124.3-34.7-198.7-34.7s-145.3,34.7-198.7,34.7c-59.2,0-220.5-37.8-275.5-14.8c-56.1,23.5-1,58.1-2.9,21.6   c-2.8-55.4-64.4,7.4-179.3-22.5C546.3,23.9,391.3,117.8,373,62.8c-12.2-36.5,37.9-25.4,15.7-3.7c-24,23.3-124.7,12.6-191.7-11.1   C159.2,34.6,63.3,8.2-5.3,54.1"/>
</g>
</svg>