<?xml version="1.0" encoding="UTF-8" standalone="no"?>
<!-- Generator: Adobe Illustrator 25.0.1, SVG Export Plug-In . SVG Version: 6.00 Build 0)  -->

<svg
   version="1.1"
   id="Layer_1"
   x="0px"
   y="0px"
   viewBox="0 0 1123 472.4"
   xml:space="preserve"
   sodipodi:docname="logo.svg"
   inkscape:version="1.1.1 (3bf5ae0d25, 2021-09-20)"
   style="enable-background:new 0 0 1123 472.4;"
   xmlns:inkscape="http://www.inkscape.org/namespaces/inkscape"
   xmlns:sodipodi="http://sodipodi.sourceforge.net/DTD/sodipodi-0.dtd"
   xmlns:xlink="http://www.w3.org/1999/xlink"
   xmlns="http://www.w3.org/2000/svg"
   xmlns:svg="http://www.w3.org/2000/svg"><defs
   id="defs71"><linearGradient
     inkscape:collect="always"
     xlink:href="#SVGID_1_"
     id="linearGradient7062"
     x1="515.95154"
     y1="53.987648"
     x2="516.00604"
     y2="-9.3915405"
     gradientUnits="userSpaceOnUse"
     gradientTransform="matrix(0.74147268,0,0,0.74147268,164.38563,6.4370311)" /><linearGradient
     inkscape:collect="always"
     xlink:href="#SVGID_2_"
     id="linearGradient10763"
     x1="552.37268"
     y1="85.452133"
     x2="546.05695"
     y2="307.2793"
     gradientUnits="userSpaceOnUse"
     gradientTransform="translate(-24,8)" /><linearGradient
     inkscape:collect="always"
     xlink:href="#SVGID_3_"
     id="linearGradient11302"
     x1="552.37268"
     y1="85.452133"
     x2="559.13086"
     y2="198.34631"
     gradientUnits="userSpaceOnUse"
     gradientTransform="translate(-24,8)" /></defs><sodipodi:namedview
   id="namedview69"
   pagecolor="#ffffff"
   bordercolor="#666666"
   borderopacity="1.0"
   inkscape:pageshadow="2"
   inkscape:pageopacity="0.0"
   inkscape:pagecheckerboard="0"
   showgrid="false"
   inkscape:zoom="0.5048976"
   inkscape:cx="389.18783"
   inkscape:cy="46.544092"
   inkscape:window-width="1920"
   inkscape:window-height="1009"
   inkscape:window-x="1912"
   inkscape:window-y="-8"
   inkscape:window-maximized="1"
   inkscape:current-layer="Layer_1" />
<style
   type="text/css"
   id="style2">
	.st0{fill:url(#SVGID_1_);}
	.st1{fill:url(#SVGID_2_);}
	.st2{fill:url(#SVGID_3_);}
	.st3{filter:url(#Adobe_OpacityMaskFilter);}
	.st4{opacity:0.25;mask:url(#SVGID_4_);}
	.st5{fill:none;stroke:url(#SVGID_5_);stroke-width:4;stroke-miterlimit:10;}
</style>
<g
   id="g66"
   transform="translate(1107.7507,-539.03877)">
	<g
   id="g17">
		<linearGradient
   id="SVGID_1_"
   gradientUnits="userSpaceOnUse"
   x1="561.47589"
   y1="41.240898"
   x2="561.47589"
   y2="16.332001">
			<stop
   offset="0"
   style="stop-color:#FCAB31"
   id="stop4" />
			<stop
   offset="0.2828"
   style="stop-color:#D08720"
   id="stop6" />
			<stop
   offset="0.6035"
   style="stop-color:#A4640F"
   id="stop8" />
			<stop
   offset="0.8534"
   style="stop-color:#894E05"
   id="stop10" />
			<stop
   offset="1"
   style="stop-color:#7F4601"
   id="stop12" />
		</linearGradient>
		
	</g>
	<linearGradient
   id="SVGID_2_"
   gradientUnits="userSpaceOnUse"
   x1="561.62872"
   y1="62.1147"
   x2="561.62872"
   y2="0">
		<stop
   offset="0"
   style="stop-color:#FCAB31"
   id="stop19" />
		<stop
   offset="0.8426"
   style="stop-color:#AC6B13"
   id="stop21" />
		<stop
   offset="1"
   style="stop-color:#9D5E0D"
   id="stop23" />
	</linearGradient>
	
	<g
   id="g51">
		<g
   id="g35">
			<linearGradient
   id="SVGID_3_"
   gradientUnits="userSpaceOnUse"
   x1="561.47589"
   y1="470.4241"
   x2="561.47589"
   y2="95.472099">
				<stop
   offset="0"
   style="stop-color:#051E19"
   id="stop28" />
				<stop
   offset="1"
   style="stop-color:#0B3D33"
   id="stop30" />
			</linearGradient>
			
		</g>
		<defs
   id="defs40">
			<filter
   id="Adobe_OpacityMaskFilter"
   filterUnits="userSpaceOnUse"
   x="2"
   y="95.5"
   width="1119"
   height="375">
				
					<feColorMatrix
   type="matrix"
   values="-1 0 0 0 1  0 -1 0 0 1  0 0 -1 0 1  0 0 0 1 0"
   color-interpolation-filters="sRGB"
   result="source"
   id="feColorMatrix37" />
			</filter>
		</defs>
		<mask
   maskUnits="userSpaceOnUse"
   x="2"
   y="95.5"
   width="1119"
   height="375"
   id="SVGID_4_">
			<g
   class="st3"
   id="g44">
				
					<image
   style="overflow:visible"
   width="4688"
   height="1588"
   xlink:href="307133DE1551C743.jpg"
   transform="matrix(0.24,0,0,0.24,-1.1041,92.4096)"
   id="image42">
				</image>
			</g>
		</mask>
		<g
   class="st4"
   mask="url(#SVGID_4_)"
   id="g49">
			
		</g>
	</g>
	<linearGradient
   id="SVGID_5_"
   gradientUnits="userSpaceOnUse"
   x1="561.47589"
   y1="93.472099"
   x2="561.47589"
   y2="472.4241">
		<stop
   offset="0"
   style="stop-color:#FCAB31"
   id="stop53" />
		<stop
   offset="0.2828"
   style="stop-color:#D08720"
   id="stop55" />
		<stop
   offset="0.6035"
   style="stop-color:#A4640F"
   id="stop57" />
		<stop
   offset="0.8534"
   style="stop-color:#894E05"
   id="stop59" />
		<stop
   offset="1"
   style="stop-color:#7F4601"
   id="stop61" />
	</linearGradient>
	
</g>
<g
   aria-label="The Secret of the"
   id="text3376"
   style="font-weight:bold;font-size:53.4517px;line-height:1.25;font-family:'Palatino Linotype';-inkscape-font-specification:'Palatino Linotype Bold';fill:url(#linearGradient7062);stroke-width:1.33629"><path
     d="m 395.4227,10.375815 q -0.31319,1.93136 -0.33929,3.993217 l -0.0522,4.358611 -0.261,0.260994 h -1.64426 l -0.2871,-0.234895 q -0.13049,-3.340731 -0.28709,-3.914919 -0.3132,-1.043979 -1.67037,-1.226675 -0.52199,-0.0783 -4.9067,-0.0783 h -3.49732 q -0.0522,0.913481 -0.0522,7.25565 v 14.824495 q 0,6.211672 0.33929,8.090833 0.1305,0.756884 0.88738,0.96568 0.39149,0.104398 3.05364,0.260995 l 0.26099,0.260994 v 1.748664 l -0.26099,0.260995 q -2.58385,-0.156597 -8.03864,-0.156597 -5.58528,0 -8.03863,0.156597 l -0.2349,-0.234895 v -1.774764 l 0.261,-0.260994 q 2.66214,-0.156597 3.05364,-0.260995 0.75688,-0.208796 0.88738,-0.96568 0.33929,-1.879161 0.33929,-8.090833 V 20.7895 q 0,-6.446567 -0.0783,-7.25565 h -3.73222 q -4.6718,0 -5.45479,0.287094 -0.41759,0.156596 -0.57419,0.391492 -0.23489,0.417591 -0.39149,1.670365 -0.18269,1.383272 -0.23489,2.844842 l -0.261,0.260994 h -1.64426 l -0.2871,-0.260994 -0.0522,-4.463008 q -0.0261,-1.879162 -0.31319,-3.88882 l 0.23489,-0.260995 q 1.53987,0.260995 11.22277,0.260995 h 10.57029 q 8.92601,0 11.22276,-0.260995 z"
     id="path13148" /><path
     d="m 428.02093,46.941161 -0.261,0.287094 q -2.87094,-0.182696 -4.8545,-0.182696 -1.82696,0 -5.32429,0.182696 l -0.26099,-0.260994 q 0.46979,-5.82018 0.46979,-8.978215 v -5.115495 q 0,-6.368269 -4.59351,-6.368269 -2.45334,0 -3.81052,1.696465 -1.09617,1.357172 -1.09617,3.497328 v 3.079737 q 0,5.298191 0.18269,8.691121 0.0522,1.017879 0.57419,1.252774 0.60029,0.313193 3.10584,0.391492 l 0.28709,0.260994 v 1.592068 l -0.26099,0.260994 q -2.47945,-0.182696 -7.15126,-0.182696 -4.6718,0 -7.12515,0.182696 l -0.26099,-0.260994 v -1.592068 l 0.26099,-0.260994 q 2.50555,-0.0783 3.10584,-0.391492 0.52198,-0.234895 0.57418,-1.252774 0.1827,-3.39293 0.1827,-11.875256 v -8.743319 q 0,-5.480887 -0.1827,-8.873818 -0.0522,-0.96568 -0.57418,-1.252774 -0.52199,-0.313193 -3.02754,-0.391492 l -0.261,-0.287094 v -1.43547 l 0.261,-0.287094 q 5.03719,-0.5480889 10.10049,-2.1662555 l 0.54809,0.3131935 q 0,0.7046855 -0.0783,2.583847 -0.26099,6.237771 -0.26099,13.806615 v 1.46157 l 4.5935,-3.86272 q 1.72257,-0.704686 3.78442,-0.704686 4.14982,0 6.21167,2.505549 1.67037,2.035758 1.67037,5.976776 0,0.443691 -0.1044,3.184135 -0.1044,2.740443 -0.1044,4.984997 0,3.941019 0.1305,5.037196 0.1305,1.070078 0.60029,1.357172 0.46979,0.287094 2.71434,0.339293 l 0.2349,0.260995 z"
     id="path13150" /><path
     d="m 453.98989,32.403761 q 0,0.443691 -0.0261,1.331072 l -0.28709,0.365393 q -3.44513,0.93958 -9.13481,0.93958 -1.01788,0 -3.07974,0.0522 -2.06186,0.0261 -3.10584,0.0261 0.1566,3.836621 2.37505,6.342169 2.32286,2.688245 6.05508,2.688245 2.50555,0 5.95068,-1.722565 l 0.62638,0.756885 -1.14837,2.583846 q -3.81052,2.42725 -8.27353,2.42725 -5.87238,0 -9.13481,-3.314631 -3.23634,-3.314632 -3.23634,-9.448006 0,-7.28175 3.47123,-9.969994 4.8023,-3.706124 9.10871,-3.706124 4.67181,0 7.22956,2.688245 2.60994,2.766543 2.60994,7.960335 z m -6.81196,-0.678586 q 0,-7.046855 -4.38471,-7.046855 -4.6196,0 -4.6196,6.994656 v 0.574188 q 1.51377,0.234895 5.37649,0.234895 2.00966,0 3.60172,-0.234895 0.0261,-0.365393 0.0261,-0.521989 z m -3.15803,17.356142 z m 0,-28.60501 z"
     id="path13152" /><path
     d="m 499.08976,34.987607 q 0,4.306412 -2.45335,7.594944 -2.14015,2.89704 -5.61138,4.306411 -3.18413,1.304973 -7.59494,1.304973 -5.48089,0 -10.75298,-2.505548 l -0.3132,-0.574188 q 0.73079,-3.001438 0.73079,-8.534524 l 0.26099,-0.260995 h 1.67037 l 0.2349,0.260995 v 0.600287 q 0,1.46157 0.31319,3.862721 0.93958,1.670365 3.36683,2.87094 2.53165,1.252775 5.27209,1.252775 5.16769,0 7.15125,-3.601726 1.01788,-1.853062 1.01788,-3.836621 0,-3.340731 -2.79264,-4.776202 -1.38327,-0.704685 -4.46301,-1.174475 -6.96855,-1.070078 -9.16091,-2.688245 -3.31463,-2.453349 -3.31463,-7.594943 0,-5.35039 3.60172,-8.534525 3.81053,-3.3407307 10.59639,-3.3407307 6.10727,0 9.86559,1.9574597 l 0.1827,0.626387 q -0.62639,3.105836 -0.75689,7.464446 l -0.28709,0.260995 h -1.64427 l -0.26099,-0.260995 q -0.0783,-3.131935 -0.26099,-4.071516 -0.80909,-1.226675 -2.81875,-2.087957 -2.14015,-0.887382 -4.463,-0.887382 -3.49733,0 -5.53309,1.853062 -1.90526,1.748664 -1.90526,4.515207 0,3.001438 2.16625,4.410809 1.40938,0.913481 6.65537,1.748664 0.54809,0.0783 3.05363,0.52199 1.53987,0.260994 2.84485,0.756884 2.63604,0.991779 3.96711,3.027537 1.43547,2.218455 1.43547,5.533086 z"
     id="path13154" /><path
     d="m 526.7291,32.403761 q 0,0.443691 -0.0261,1.331072 l -0.28709,0.365393 q -3.44513,0.93958 -9.13481,0.93958 -1.01788,0 -3.07974,0.0522 -2.06186,0.0261 -3.10583,0.0261 0.15659,3.836621 2.37505,6.342169 2.32285,2.688245 6.05507,2.688245 2.50555,0 5.95068,-1.722565 l 0.62639,0.756885 -1.14838,2.583846 q -3.81052,2.42725 -8.27353,2.42725 -5.87238,0 -9.13481,-3.314631 -3.23633,-3.314632 -3.23633,-9.448006 0,-7.28175 3.47122,-9.969994 4.80231,-3.706124 9.10872,-3.706124 4.6718,0 7.22955,2.688245 2.60994,2.766543 2.60994,7.960335 z m -6.81196,-0.678586 q 0,-7.046855 -4.38471,-7.046855 -4.6196,0 -4.6196,6.994656 v 0.574188 q 1.51377,0.234895 5.37649,0.234895 2.00966,0 3.60172,-0.234895 0.0261,-0.365393 0.0261,-0.521989 z m -3.15803,17.356142 z m 0,-28.60501 z"
     id="path13156" /><path
     d="m 551.0799,43.757027 -1.14838,2.583846 q -3.54953,1.853062 -6.99465,1.853062 -5.82018,0 -8.89992,-3.340731 -3.07974,-3.340731 -3.07974,-9.160911 0,-5.376489 2.37505,-8.169132 0.65249,-0.782984 2.47945,-2.061857 3.75833,-2.662145 5.0111,-3.184135 1.27887,-0.521989 3.88882,-0.521989 3.54953,0 5.87238,1.070078 l 0.26099,0.46979 q -0.0261,0.339293 -0.36539,2.42725 l -0.28709,1.774764 q -0.0783,0.443691 -0.2349,3.497328 l -0.26099,0.260994 h -1.56597 l -0.261,-0.260994 q -0.15659,-2.322852 -0.36539,-3.236334 -1.14837,-2.035758 -4.41081,-2.035758 -5.53308,0 -5.53308,7.177352 0,5.219893 2.21845,8.221331 2.27065,3.105836 6.39437,3.105836 2.50555,0 4.41081,-1.070078 z"
     id="path13158" /><path
     d="m 573.08174,21.833479 -0.18269,4.645704 q -0.0261,1.148376 -0.1044,2.609946 l -1.09618,0.339293 q -1.22667,-1.774763 -3.39293,-1.774763 -1.95746,0 -3.23633,1.565967 -0.78298,0.96568 -0.78298,2.844842 v 6.107274 q 0,1.905261 0.18269,5.298191 0.0522,0.96568 0.54809,1.252774 0.49589,0.287094 3.62783,0.391492 l 0.26099,0.234895 v 1.592067 l -0.26099,0.260995 q -3.83663,-0.156597 -7.62105,-0.156597 -4.6718,0 -7.12515,0.182696 l -0.26099,-0.260994 v -1.592068 l 0.26099,-0.260994 q 2.50555,-0.0783 3.10584,-0.391492 0.52199,-0.234895 0.57418,-1.252774 0.1827,-3.39293 0.1827,-7.28175 V 32.45596 q 0,-5.219893 -0.39149,-6.002877 -0.261,-0.521989 -1.12228,-0.652486 -0.31319,-0.0522 -2.27065,-0.130497 l -0.261,-0.260995 v -1.46157 l 0.261,-0.287094 q 4.6979,-0.443691 9.89169,-2.166255 l 0.57419,0.339293 -0.0522,5.115494 q 1.61817,-1.879161 3.91492,-4.384709 1.07008,-1.043979 2.92314,-1.043979 1.09618,0 1.85306,0.313194 z"
     id="path13160" /><path
     d="m 597.98063,32.403761 q 0,0.443691 -0.0261,1.331072 l -0.28709,0.365393 q -3.44513,0.93958 -9.13482,0.93958 -1.01787,0 -3.07973,0.0522 -2.06186,0.0261 -3.10584,0.0261 0.1566,3.836621 2.37505,6.342169 2.32285,2.688245 6.05508,2.688245 2.50555,0 5.95068,-1.722565 l 0.62638,0.756885 -1.14837,2.583846 q -3.81053,2.42725 -8.27353,2.42725 -5.87238,0 -9.13482,-3.314631 -3.23633,-3.314632 -3.23633,-9.448006 0,-7.28175 3.47123,-9.969994 4.8023,-3.706124 9.10871,-3.706124 4.67181,0 7.22955,2.688245 2.60995,2.766543 2.60995,7.960335 z m -6.81196,-0.678586 q 0,-7.046855 -4.38471,-7.046855 -4.6196,0 -4.6196,6.994656 v 0.574188 q 1.51376,0.234895 5.37648,0.234895 2.00966,0 3.60173,-0.234895 0.0261,-0.365393 0.0261,-0.521989 z m -3.15803,17.356142 z m 0,-28.60501 z"
     id="path13162" /><path
     d="m 617.24203,43.626529 q -0.1827,0.208796 -1.12228,1.096178 -1.53987,1.46157 -2.63604,2.662145 -1.27888,0.417591 -2.58385,0.417591 -3.62783,0 -5.29819,-2.114056 -0.70469,-0.913481 -0.93958,-2.114057 -0.261,-1.43547 -0.2349,-3.758322 l 0.0783,-6.237771 v -6.524866 h -0.70468 l -1.38328,0.0522 h -1.07007 l -0.2871,-0.234895 V 26.19209 l 0.2088,-0.391492 q 0.46979,-0.313194 1.46157,-0.939581 1.17447,-0.730785 1.77476,-1.226675 v -3.549526 q 0,-2.218455 -0.20879,-4.697904 1.95746,-0.626387 3.15803,-1.096177 1.22668,-0.49589 3.44513,-1.592067 l 0.67859,0.521989 q -0.3132,3.236333 -0.4437,5.794081 l -0.23489,4.515207 h 0.86128 q 2.84484,0 4.9067,-0.182697 l 0.28709,0.287094 -0.36539,3.053638 -0.26099,0.260994 h -5.42869 v 8.847718 q 0,4.254212 0.1044,5.011096 0.13049,1.096178 0.91348,1.774764 0.80908,0.678586 2.16625,0.678586 1.07008,0 2.58385,-0.574188 z"
     id="path13164" /><path
     d="m 658.60968,34.100226 q 0,9.239209 -6.21167,12.501642 -3.02754,1.592067 -6.91636,1.592067 -6.00287,0 -9.16091,-3.471228 -3.13193,-3.471229 -3.13193,-9.943895 0,-8.952116 6.10727,-11.927454 3.00144,-1.46157 6.96856,-1.46157 8.32573,0 11.04007,5.767981 1.30497,2.766543 1.30497,6.942457 z m -7.22955,2.140156 q 0,-6.498766 -1.43547,-9.291409 -1.40937,-2.818742 -4.33251,-2.818742 -5.19379,0 -5.19379,9.369707 0,12.031852 5.82018,12.031852 3.62782,0 4.6196,-3.993218 0.52199,-2.087957 0.52199,-5.29819 z m -5.21989,12.840935 z m 0,-28.60501 z"
     id="path13166" /><path
     d="m 681.10743,8.3922556 -0.1044,2.7926424 0.0522,2.609946 -0.80908,0.469791 q -1.25278,-1.304974 -3.18414,-1.304974 -3.02754,0 -3.39293,2.322853 -0.1827,1.174475 -0.1827,4.697903 v 3.653924 h 2.37506 q 1.77476,0 4.5935,-0.208795 l 0.36539,0.287094 -0.60028,2.975339 -0.261,0.260994 -3.73222,-0.0261 q -1.98356,0 -2.74045,0.0261 v 4.645704 q 0,11.849156 0.3654,12.658239 0.20879,0.469791 0.70468,0.600288 0.78299,0.182696 3.60173,0.260995 l 0.26099,0.260994 v 1.592068 l -0.26099,0.260994 -1.93136,-0.0783 q -2.76654,-0.104398 -6.00288,-0.104398 -4.6718,0 -7.12515,0.182696 l -0.261,-0.260994 v -1.592068 l 0.261,-0.260994 q 2.50555,-0.0783 3.10583,-0.391492 0.52199,-0.234895 0.57419,-1.252774 0.1827,-3.39293 0.1827,-11.875256 v -4.645704 q -0.57419,-0.0261 -0.70469,-0.0261 -0.28709,0 -1.51376,0.0783 -0.60029,0.0261 -1.64427,0.0783 l -0.261,-0.260994 v -0.809083 l 0.2349,-0.365393 2.32285,-1.200575 q 0.67859,-0.313194 1.43547,-0.756885 0.1305,-0.156596 0.1305,-0.46979 v -0.391492 q 0,-4.019317 0.52199,-5.480887 0.28709,-0.782984 1.09618,-1.774763 0.23489,-0.287094 3.39293,-3.288533 l 1.61816,-1.539868 q 0.70469,-0.704685 1.80087,-1.6703654 1.43547,-1.0439785 3.49732,-1.0439785 1.09618,0 2.21846,0.3653915 z"
     id="path13168" /><path
     d="m 712.29627,43.626529 q -0.18269,0.208796 -1.12227,1.096178 -1.53987,1.46157 -2.63605,2.662145 -1.27887,0.417591 -2.58385,0.417591 -3.62782,0 -5.29819,-2.114056 -0.70468,-0.913481 -0.93958,-2.114057 -0.26099,-1.43547 -0.23489,-3.758322 l 0.0783,-6.237771 v -6.524866 h -0.70469 l -1.38327,0.0522 h -1.07008 l -0.28709,-0.234895 V 26.19209 l 0.20879,-0.391492 q 0.46979,-0.313194 1.46157,-0.939581 1.17448,-0.730785 1.77477,-1.226675 v -3.549526 q 0,-2.218455 -0.2088,-4.697904 1.95746,-0.626387 3.15804,-1.096177 1.22667,-0.49589 3.44512,-1.592067 l 0.67859,0.521989 q -0.31319,3.236333 -0.44369,5.794081 l -0.2349,4.515207 h 0.86129 q 2.84484,0 4.9067,-0.182697 l 0.28709,0.287094 -0.36539,3.053638 -0.261,0.260994 h -5.42869 v 8.847718 q 0,4.254212 0.1044,5.011096 0.1305,1.096178 0.91348,1.774764 0.80909,0.678586 2.16626,0.678586 1.07008,0 2.58385,-0.574188 z"
     id="path13170" /><path
     d="m 744.24202,46.941161 -0.261,0.287094 q -2.87094,-0.182696 -4.8545,-0.182696 -1.82696,0 -5.32429,0.182696 l -0.26099,-0.260994 q 0.46979,-5.82018 0.46979,-8.978215 v -5.115495 q 0,-6.368269 -4.59351,-6.368269 -2.45335,0 -3.81052,1.696465 -1.09618,1.357172 -1.09618,3.497328 v 3.079737 q 0,5.298191 0.1827,8.691121 0.0522,1.017879 0.57419,1.252774 0.60029,0.313193 3.10583,0.391492 l 0.2871,0.260994 v 1.592068 l -0.261,0.260994 q -2.47945,-0.182696 -7.15125,-0.182696 -4.6718,0 -7.12515,0.182696 l -0.261,-0.260994 v -1.592068 l 0.261,-0.260994 q 2.50555,-0.0783 3.10583,-0.391492 0.52199,-0.234895 0.57419,-1.252774 0.1827,-3.39293 0.1827,-11.875256 v -8.743319 q 0,-5.480887 -0.1827,-8.873818 -0.0522,-0.96568 -0.57419,-1.252774 -0.52199,-0.313193 -3.02753,-0.391492 l -0.261,-0.287094 v -1.43547 l 0.261,-0.287094 q 5.03719,-0.5480889 10.10049,-2.1662555 l 0.54809,0.3131935 q 0,0.7046855 -0.0783,2.583847 -0.261,6.237771 -0.261,13.806615 v 1.46157 l 4.59351,-3.86272 q 1.72256,-0.704686 3.78442,-0.704686 4.14982,0 6.21167,2.505549 1.67037,2.035758 1.67037,5.976776 0,0.443691 -0.1044,3.184135 -0.1044,2.740443 -0.1044,4.984997 0,3.941019 0.1305,5.037196 0.1305,1.070078 0.60029,1.357172 0.46979,0.287094 2.71434,0.339293 l 0.2349,0.260995 z"
     id="path13172" /><path
     d="m 770.21098,32.403761 q 0,0.443691 -0.0261,1.331072 l -0.2871,0.365393 q -3.44513,0.93958 -9.13481,0.93958 -1.01788,0 -3.07974,0.0522 -2.06185,0.0261 -3.10583,0.0261 0.1566,3.836621 2.37505,6.342169 2.32285,2.688245 6.05507,2.688245 2.50555,0 5.95068,-1.722565 l 0.62639,0.756885 -1.14838,2.583846 q -3.81052,2.42725 -8.27353,2.42725 -5.87238,0 -9.13481,-3.314631 -3.23633,-3.314632 -3.23633,-9.448006 0,-7.28175 3.47123,-9.969994 4.8023,-3.706124 9.10871,-3.706124 4.6718,0 7.22955,2.688245 2.60995,2.766543 2.60995,7.960335 z m -6.81196,-0.678586 q 0,-7.046855 -4.38471,-7.046855 -4.61961,0 -4.61961,6.994656 v 0.574188 q 1.51377,0.234895 5.37649,0.234895 2.00966,0 3.60173,-0.234895 0.0261,-0.365393 0.0261,-0.521989 z m -3.15804,17.356142 z m 0,-28.60501 z"
     id="path13174" /></g><g
   aria-label="NILE"
   id="text8917"
   style="font-size:278.958px;line-height:1.25;font-family:'Roman SD';-inkscape-font-specification:'Roman SD';fill:url(#linearGradient11302);stroke:url(#linearGradient10763);stroke-width:2.174"><path
     d="m 451.13786,87.41259 q -2.51062,1.952706 -11.43728,4.18437 -10.32145,2.231665 -13.66894,4.184371 -5.85812,60.254929 -5.85812,63.881379 v 13.11103 q 0,6.97395 -3.06854,56.90743 -1.67375,25.66414 -3.3475,51.32828 -0.55791,0.55791 -1.67374,0.55791 -0.83688,0 -14.22686,-13.11102 -49.93349,-49.09661 -77.82929,-77.82929 -42.95953,-44.07536 -60.53388,-61.64972 -1.95271,35.98559 -0.27896,89.82448 0,11.15832 2.78958,37.10142 0.83687,5.02124 1.39479,6.41603 1.11583,2.78958 3.34749,4.18437 6.97395,3.90541 14.22686,3.90541 4.74229,0 14.78478,1.67375 -0.27896,0 -21.20081,4.46333 -15.34269,3.06854 -25.66414,3.06854 -13.9479,0 -21.20081,-1.67375 0.55792,-0.55792 8.92666,-6.41603 5.57916,-3.90542 7.25291,-9.48458 5.85812,-20.92185 5.85812,-73.08699 v -15.62165 l 1.9527,-34.03288 q 0,-18.69019 -4.18437,-27.61684 -6.41603,-13.668945 -26.22205,-22.316644 17.2954,-1.952706 50.77036,-4.18437 22.03768,33.753924 64.99721,79.224074 16.45852,17.01644 70.29742,70.01846 0.83687,-1.11583 0.83687,-3.3475 l -1.39479,-42.95953 q -1.67374,-31.52225 -3.34749,-61.37076 -0.27896,-9.76353 -2.23167,-29.290591 -0.27895,-1.673748 -3.62645,-1.673748 0,0 -6.97395,0.557916 -6.97395,0.278958 -10.32145,0.278958 1.95271,-1.39479 15.06374,-5.858119 14.78477,-5.021244 20.64289,-5.021244 z"
     id="path13102" /><path
     d="m 540.68311,279.05674 q 0,0.55792 -1.11583,2.23167 h -43.51745 l 5.02124,-47.14391 1.11584,-45.47015 q 0,-62.76555 -0.27896,-62.4866 0,-2.51062 -0.55792,-6.97395 -0.27896,-8.92665 -0.55791,-18.13227 -0.27896,-9.48457 -7.81083,-16.45852 2.78958,0 9.20562,-0.278958 7.25291,0 6.69499,0 10.32145,0 17.57435,-1.115832 7.53187,-1.39479 6.41604,-1.39479 h 2.23166 q -4.46333,37.38037 -5.57916,87.31386 l -0.55791,89.26656 q 0.55791,4.46333 1.11583,8.92666 0.55791,5.57916 3.06854,8.64769 0,0.27896 7.53186,3.06854 z"
     id="path13104" /><path
     d="m 703.87321,258.97177 q -10.32145,14.22685 -13.11103,18.41122 -6.13707,10.32145 -8.08978,19.52706 -1.9527,-2.78958 -10.04249,-10.32144 -4.18437,-3.06854 -11.15832,-4.18437 -11.99519,-1.95271 -52.4441,-1.95271 -2.51062,0 -8.6477,0.55792 -6.13708,0.83687 -10.87936,0.55791 0,-0.55791 3.06854,-1.9527 3.06853,-1.67375 3.90541,-4.46333 2.78958,-8.92666 2.78958,-31.80121 l 2.51062,-45.74912 v -52.72306 l -1.39479,-17.85331 v -11.9952 q 0,-8.08978 -1.95271,-17.853309 -1.67374,-8.089783 -2.78958,-9.205615 -0.27895,-0.278958 -5.02124,-2.78958 1.95271,-1.39479 15.06373,-1.673748 15.06373,-0.557916 20.92185,-2.231664 0,3.626454 -0.83687,13.111027 -0.83688,10.321449 -1.11583,14.226859 0,20.64289 -1.95271,93.72989 l -1.39479,47.1439 q 0,5.02125 1.11583,12.83207 1.11583,10.04249 3.06854,10.60041 5.02124,1.39479 14.50582,1.39479 0.55791,0 11.15832,0 10.6004,0.27895 11.15832,0.27895 30.40642,0 39.33308,-17.57435 1.39479,0 2.23166,1.95271 z"
     id="path13106" /><path
     d="m 886.59063,266.50363 q -6.41603,4.74229 -11.43727,15.06373 -4.18437,8.08979 -8.08979,16.17957 -0.27896,-3.90541 -1.9527,-10.60041 -3.62646,-7.2529 -33.19601,-7.2529 l -78.3872,1.9527 q 1.95271,-3.06854 3.62646,-15.06373 1.9527,-11.99519 1.9527,-20.08498 l 1.95271,-32.91704 v -34.5908 q 0,-0.27895 -0.27896,-5.3002 -0.27896,-5.02124 -0.27896,-5.57916 v -17.57435 q 0,-7.53187 -1.11583,-26.50101 -1.39479,-25.664139 -3.34749,-27.337887 -3.90542,-3.068538 -8.6477,-3.347496 -8.08978,-0.557917 -8.6477,-0.557917 0,-0.278958 0.27896,-0.836874 0.27896,-0.836874 0.27896,-1.115832 l 129.71547,-4.463328 q -3.90541,6.416034 -8.6477,17.574354 -0.83687,1.95271 -2.51062,6.69499 -0.27896,0 -1.11583,-0.27896 -0.55792,-0.27895 -0.83688,-0.27895 0.83688,-1.67375 0.83688,-3.3475 0,-4.74229 -7.81083,-7.810823 -6.13707,-2.78958 -11.15832,-2.78958 -1.67375,0 -2.23166,1.115832 -7.25291,-3.905412 -31.2433,-3.905412 -8.92666,0 -11.43728,1.115832 -2.23166,0.836874 -2.51062,8.089781 -0.27896,5.57916 -0.27896,11.15832 -0.55791,14.78478 -2.23166,44.07537 0,14.78477 -0.27896,16.73748 8.6477,1.39479 24.54831,1.39479 26.22205,0 49.65452,-8.08979 1.11583,1.11584 1.11583,1.95271 0,0.55792 -3.90541,10.32145 -4.46333,10.87936 -5.02124,13.11102 -1.39479,0 -2.78958,-2.78958 -1.11584,-3.06853 -2.51063,-4.18437 -9.20561,-5.85812 -42.95953,-5.85812 -2.78958,0 -17.01644,1.67375 -1.39479,2.23167 -1.39479,5.30021 v 61.92867 q 0,0.27896 0.27896,4.74229 0.27896,4.18437 0.27896,6.13708 0,5.3002 0.83687,9.20561 13.9479,3.90541 37.65933,3.90541 h 11.71624 q 8.6477,0 24.82726,-3.34749 16.45853,-3.62646 20.92185,-6.695 l 2.51063,0.55792 z"
     id="path13108" /></g></svg>
