<?xml version="1.0" encoding="UTF-8"?>
<!-- Generator: Adobe Illustrator 25.0.1, SVG Export Plug-In . SVG Version: 6.00 Build 0)  -->
<svg version="1.1" id="Layer_1" xmlns="http://www.w3.org/2000/svg" xmlns:xlink="http://www.w3.org/1999/xlink" x="0px" y="0px" viewBox="0 0 222.5 54.1" style="enable-background:new 0 0 222.5 54.1;" xml:space="preserve">
<style type="text/css">
	.st0{fill:#985B0B;}
	.st1{fill:url(#SVGID_1_);}
	.st2{fill:url(#SVGID_2_);}
	.st3{fill:#F8A83E;}
</style>
<g>
	<g>
		<g>
			<path class="st0" d="M211.3,0H11.2C5,0,0,5,0,11.2v0.5C0,5.6,5,0.5,11.2,0.5h200.1c6.2,0,11.2,5,11.2,11.2v-0.5     C222.5,5,217.5,0,211.3,0z"/>
			<linearGradient id="SVGID_1_" gradientUnits="userSpaceOnUse" x1="111.2621" y1="-0.4018" x2="111.2621" y2="54.778">
				<stop offset="0" style="stop-color:#FCAB31"/>
				<stop offset="1" style="stop-color:#7F4601"/>
			</linearGradient>
			<path class="st1" d="M211.3,0H11.2C5,0,0,5,0,11.2v31.7C0,49,5,54.1,11.2,54.1h200.1c6.2,0,11.2-5,11.2-11.2V11.2     C222.5,5,217.5,0,211.3,0z M219.3,42.9c0,4.4-3.6,7.9-8,7.9H11.2c-4.4,0-8-3.6-8-7.9V11.2c0-4.4,3.6-8,8-8h200.1c4.4,0,8,3.6,8,8     V42.9z"/>
			<linearGradient id="SVGID_2_" gradientUnits="userSpaceOnUse" x1="111.2621" y1="-0.247" x2="111.2621" y2="33.6776">
				<stop offset="0" style="stop-color:#FCAB31"/>
				<stop offset="1" style="stop-color:#7F4601"/>
			</linearGradient>
			<path class="st2" d="M222.5,11.2v14.2c0,3.1-1.2,5.8-3.2,7.9v-22c0-4.4-3.6-8-8-8H11.2c-4.4,0-8,3.6-8,8v22c-2-2-3.2-4.8-3.2-7.9     V11.2C0,5,5,0,11.2,0h200.1C217.5,0,222.5,5,222.5,11.2z"/>
		</g>
	</g>
	<g>
		<g>
			<path class="st3" d="M92.1,33.2c-0.3,0-0.6,0.1-0.8,0.4l-1-4.3l0.1,0c1.3,1.5,3.2,2.4,4.9,2.4c1.3,0,2.2-0.4,2.2-1.1     c0-0.8-0.9-1-2.9-1.3c-1.8-0.3-4-1-4-3.2c0-2,2.1-3.3,4.7-3.3c1.6,0,2.3,0.4,2.8,0.4c0.3,0,0.5-0.1,0.7-0.3l0.7,4l-0.1,0     c-1-1.3-2.6-2-4.2-2c-1.3,0-2.3,0.4-2.3,1.1c0,0.8,1.2,1,2.3,1.2c2.1,0.4,4.5,1,4.5,3.3c0,2-1.9,3.3-4.4,3.3     C93.8,33.7,92.6,33.2,92.1,33.2z"/>
			<path class="st3" d="M113.4,33.5L113.4,33.5l-4.2,0v0c0.5-0.2,0.6-0.6,0.2-1.3l-1.9-3.6l-2.1,2.7v0.9c0,0.7,0.3,1.1,0.8,1.3v0h-4     v0c0.5-0.2,0.8-0.6,0.8-1.3l0-8.1c0-0.7-0.3-1.1-0.8-1.3v0h4v0c-0.5,0.2-0.8,0.6-0.8,1.3l0,4.2l3.2-4.1c0.5-0.7,0.6-1.1,0-1.3v0     h4.3v0c-0.5,0.2-1.1,0.5-1.5,1.1l-2.3,3l2.7,5.3C112.4,32.9,112.9,33.3,113.4,33.5z"/>
			<path class="st3" d="M115.4,33.5c0.5-0.2,0.8-0.6,0.8-1.3v-8.1c0-0.7-0.3-1.1-0.8-1.3v0h4v0c-0.5,0.2-0.8,0.6-0.8,1.3v8.1     c0,0.7,0.3,1.1,0.8,1.3v0L115.4,33.5L115.4,33.5z"/>
			<path class="st3" d="M132.2,26.4c0,2-1.5,3.6-3.8,3.6h-3v2.2c0,0.7,0.3,1.1,0.8,1.3v0h-4v0c0.5-0.2,0.8-0.6,0.8-1.3v-8.1     c0-0.7-0.3-1.1-0.8-1.3v0h6.1C130.6,22.8,132.2,24.4,132.2,26.4z M129.8,26.4c0-0.7-0.5-1.5-1.7-1.5h-2.7V28h2.7     C129.3,28,129.8,27.2,129.8,26.4z"/>
		</g>
	</g>
</g>
</svg>