<?xml version="1.0" encoding="UTF-8" standalone="no"?>
<!-- Generator: Adobe Illustrator 25.0.1, SVG Export Plug-In . SVG Version: 6.00 Build 0)  -->

<svg
   version="1.1"
   id="Layer_1"
   x="0px"
   y="0px"
   viewBox="0 0 357.70401 61.345519"
   xml:space="preserve"
   sodipodi:docname="solicomics-logo.svg"
   inkscape:version="1.1.1 (3bf5ae0d25, 2021-09-20)"
   width="357.70401"
   height="61.34552"
   xmlns:inkscape="http://www.inkscape.org/namespaces/inkscape"
   xmlns:sodipodi="http://sodipodi.sourceforge.net/DTD/sodipodi-0.dtd"
   xmlns="http://www.w3.org/2000/svg"
   xmlns:svg="http://www.w3.org/2000/svg"><defs
   id="defs61" /><sodipodi:namedview
   id="namedview59"
   pagecolor="#ffffff"
   bordercolor="#666666"
   borderopacity="1.0"
   inkscape:pageshadow="2"
   inkscape:pageopacity="0.0"
   inkscape:pagecheckerboard="0"
   showgrid="false"
   inkscape:zoom="2.1382909"
   inkscape:cx="188.23444"
   inkscape:cy="52.144448"
   inkscape:window-width="1920"
   inkscape:window-height="1009"
   inkscape:window-x="1912"
   inkscape:window-y="-8"
   inkscape:window-maximized="1"
   inkscape:current-layer="Layer_1"
   fit-margin-top="0"
   fit-margin-left="0"
   fit-margin-right="0"
   fit-margin-bottom="0" />
<style
   type="text/css"
   id="style2">
	.st0{fill:#FFF9EF;}
</style>

<g
   aria-label="Presents"
   id="text1838"
   style="font-size:40px;line-height:1.25;font-family:'Tempus Sans ITC';-inkscape-font-specification:'Tempus Sans ITC';fill:#f1f1f1"><path
     d="m 112.30624,50.466614 q 0,-0.05859 0.44922,-1.054688 0.11719,-1.074218 0.11719,-2.753906 l -0.0391,-2.324219 0.0781,-4.199218 q 0,-3.164063 -0.17578,-4.550782 -0.17578,-1.386718 -0.17578,-1.445312 0,-0.175781 0.0586,-0.429688 0.0586,-0.273437 0.0586,-0.371093 l -0.0391,-0.390625 q 0,-0.683594 0.8789,-0.917969 0.89844,-0.253906 3.67188,-0.253906 2.61718,0 4.55078,0.390625 1.95312,0.371093 3.35937,1.171875 1.40625,0.800781 2.01172,1.71875 0.60547,0.917968 0.85938,1.71875 0.27343,0.78125 0.27343,2.695312 0,1.328125 -0.41015,2.304688 -0.39063,0.976562 -1.42578,2.617187 -1.03516,1.621094 -2.38282,2.773438 -1.32812,1.132812 -2.87109,1.835937 -1.52344,0.683594 -3.49609,0.976563 -1.46485,0.214843 -1.99219,0.644531 -0.50781,0.429687 -0.50781,1.953125 0,0.644531 0.13672,1.445312 0.13671,0.78125 0.13671,1.679688 l -0.0391,0.878906 q 0,0.390625 0.0781,0.878906 l 0.0781,0.488282 v 0.273437 q 0,0.3125 -0.11719,0.410156 -0.11718,0.07813 -0.66406,0.175782 -0.52734,0.09766 -1.03515,0.292968 -0.50782,0.195313 -0.58594,0.195313 -0.0977,0 -0.42969,-0.136719 -0.33203,-0.136719 -0.64453,-0.195312 -0.3125,-0.07813 -0.3125,-0.214844 0,-0.117188 0.35156,-0.507813 0.3711,-0.410156 0.3711,-0.859375 v -0.117187 q 0.0977,-0.78125 0.27343,-1.542969 0.19532,-0.761719 0.19532,-2.050781 0,-0.761719 -0.0781,-1.601563 -0.0586,-0.859375 -0.13672,-0.976562 -0.0586,-0.136719 -0.2539,-0.332031 -0.17579,-0.214844 -0.17579,-0.253907 z m 3.00782,-1.640625 q 1.58203,-0.253906 2.96875,-0.664063 1.40625,-0.429687 2.53906,-0.957031 1.13281,-0.527344 1.66016,-1.035156 0.52734,-0.507813 1.17187,-1.230469 0.66406,-0.722656 1.01563,-1.191406 0.17578,-0.46875 0.54687,-1.308594 0.37109,-0.859375 0.44922,-1.601562 0.0977,-0.742188 0.0977,-1.738282 0,-2.167968 -1.03516,-3.144531 -1.03516,-0.996094 -2.40234,-1.875 -1.34766,-0.898437 -4.08204,-0.898437 h -1.36718 q -0.95703,0 -1.34766,0.449218 -0.37109,0.429688 -0.37109,1.542969 l 0.15625,3.046875 -0.0391,3.359375 v 4.433594 q 0,1.757812 0.0391,2.8125 z"
     id="path42169" /><path
     d="m 143.53671,43.904114 q 0,0.195312 -0.27343,0.664062 -0.27344,0.449219 -0.3711,0.859375 -0.0976,0.390625 -0.50781,0.800782 h -0.48828 q -1.01563,-0.605469 -1.50391,-0.605469 -0.35156,0 -1.15234,0.410156 -0.80078,0.410156 -1.54297,1.464844 -0.74219,1.035156 -0.95703,1.640625 -0.0977,0.664062 -0.625,1.40625 v 0.644531 q -0.3711,0.957031 -0.3125,1.40625 0.0586,0.429688 0.0586,0.664063 0,0.253906 -0.0391,0.410156 -0.23438,0.234375 -0.23438,0.46875 0,0.488281 0.19532,1.71875 0.21484,1.230469 0.68359,1.875 v 0.175781 q 0,0.878906 -0.72266,0.878906 l -0.39062,0.390625 q -0.48828,0.03906 -1.05469,0.03906 -0.72265,0 -1.26953,-0.195313 v -0.07813 q 0,-0.527343 0.3125,-1.542968 0.33203,-1.015625 0.33203,-1.542969 l 0.11719,-4.589844 q 0,-5.351562 -0.58594,-9.433594 -0.0586,-0.429687 -0.0586,-0.488281 0,-0.742187 0.70312,-1.132812 0.72266,-0.390625 1.25,-0.390625 0.46875,0 0.87891,0.234375 0.0391,0.07813 0.13672,0.273437 0.11719,0.195313 0.11719,0.253906 v 0.234375 q 0,0.292969 -0.35157,1.308594 -0.33203,1.015625 -0.33203,2.578125 l 0.0391,2.402344 v 0.351562 q 0,0.292969 0.52735,0.410157 0.82031,-1.816407 1.95312,-2.851563 1.15235,-1.054687 2.83203,-1.523437 1.67969,-0.46875 2.12891,-0.46875 0.50781,0.351562 0.50781,0.644531 z"
     id="path42171" /><path
     d="m 160.25546,46.540833 q 0.15625,0.15625 0.15625,0.449218 0,0.566407 -0.3125,0.839844 0.0391,0.01953 0.0391,0.117188 0,0.3125 -0.83985,0.3125 h -0.27344 q -0.11718,0 -0.23437,0.136718 -0.11719,0.136719 -0.17578,0.136719 -0.0195,0 -0.19531,-0.117187 -0.15625,-0.117188 -0.48829,-0.15625 l -0.23437,-0.234375 q -0.42969,0.117187 -0.83984,0.117187 -0.3125,0 -0.87891,-0.07813 -0.54688,-0.07813 -0.80078,-0.07813 -0.21485,0 -0.91797,0.117188 -0.68359,0.117187 -1.21094,0.117187 l -1.91406,-0.07813 q -1.54297,0 -2.79297,0.273438 -0.17578,0.09766 -0.52734,0.15625 -0.33203,0.03906 -0.3711,0.3125 -0.0195,0.253906 -0.39062,0.410156 -0.19531,0.800781 -0.19531,1.445312 0,0.507813 0.29296,1.933594 0.29297,1.425781 0.78125,2.03125 0.11719,0.136719 1.67969,1.25 0.9961,0.742188 2.14844,1.132813 1.17187,0.371093 2.69531,0.371093 0.60547,0 1.50391,-0.09766 l 0.82031,-0.09766 h 1.26953 q 0.19531,0 0.72266,-0.351563 0.54687,-0.351562 1.09375,-0.410156 0.23437,0.546875 0.23437,0.957031 0,0.917969 -0.5664,1.601563 -0.54688,0.683594 -1.26953,0.683594 l -0.41016,-0.07813 -1.23047,0.03906 h -1.05469 q -0.74218,0 -3.65234,-0.625 -2.91016,-0.625 -4.29688,-1.640625 -1.38671,-1.015625 -2.03125,-2.617187 -0.64453,-1.621094 -0.64453,-3.125 0,-2.03125 0.78125,-4.121094 0.78125,-2.109375 1.77735,-3.261719 0.99609,-1.171875 3.02734,-2.421875 0.19531,-0.09766 0.58594,-0.390625 0.41015,-0.3125 0.78125,-0.3125 l 0.64453,0.03906 q 0.41016,-0.273438 1.46484,-0.449219 1.07422,-0.195313 1.73828,-0.195313 1.19141,0 2.59766,0.878907 1.42578,0.878906 1.71875,3.671875 0.0586,0.488281 0.15625,0.800781 0.11719,0.292969 0.11719,0.332031 0,0.117188 -0.0781,0.273438 z m -8.00781,-4.277344 q -0.11719,0.175781 -1.11328,0.644531 -0.48828,0.351563 -0.9375,0.800781 -0.44922,0.449219 -0.87891,0.976563 -0.42968,0.507812 -0.76172,0.917969 -0.3125,0.410156 -0.48828,0.625 -0.17578,0.195312 -0.17578,0.351562 0,0.214844 0.27344,0.3125 l 0.25391,0.09766 h 1.44531 l 6.79687,-0.253906 q 1.3086,0 1.3086,-1.152344 0,-1.210937 -0.48828,-2.109375 -0.46875,-0.917968 -2.5,-1.445312 -0.23438,0 -0.66407,-0.03906 -0.42968,-0.03906 -0.625,-0.03906 -0.17578,0 -1.44531,0.3125 z"
     id="path42173" /><path
     d="m 172.42343,49.021301 q 1.52344,1.367188 1.52344,3.28125 0,2.480469 -1.54297,4.511719 -1.52344,2.011719 -3.94531,2.402344 -0.52735,0 -1.48438,0.07813 -0.72265,0.292969 -1.52343,0.292969 -1.05469,0 -1.66016,-0.429688 -0.60547,-0.429687 -0.60547,-1.699219 0,-0.371093 0.0391,-0.566406 h 0.15625 q 0.39063,0 0.74219,0.214844 0.35156,0.195312 0.44922,0.195312 l 0.11719,-0.03906 q 0.66406,0.644531 2.24609,0.644531 1.50391,0 2.73438,-0.527344 1.23046,-0.546875 1.8164,-1.796875 0.60547,-1.25 0.60547,-2.246093 0,-1.445313 -1.11328,-2.402344 -1.09375,-0.957031 -4.96094,-2.148438 -0.58594,-0.09766 -0.76172,-0.253906 l -0.89843,-0.78125 q -0.72266,-0.605469 -0.9375,-1.210937 l -0.19532,-0.605469 q 0,-3.085938 1.77735,-4.375 1.79687,-1.308594 6.17187,-1.308594 l 1.09375,0.05859 q 0.0977,0 0.39063,-0.09766 0.3125,0.3125 0.3125,0.878906 0,0.644531 -0.21485,1.230469 -0.21484,0.566406 -0.44922,0.664062 -0.17578,-0.351562 -0.41015,-0.527344 h -0.0391 q -0.0586,0 -0.17579,0.07813 -0.11718,0.05859 -0.17578,0.07813 -0.91797,-1.035156 -2.28515,-1.035156 -2.63672,0 -3.47657,1.015625 -0.83984,0.996094 -0.83984,2.226563 0,1.777343 2.83203,2.441406 2.07031,0.507812 3.37891,1.054687 1.30859,0.527344 1.30859,0.703125 z"
     id="path42175" /><path
     d="m 192.20859,46.540833 q 0.15625,0.15625 0.15625,0.449218 0,0.566407 -0.3125,0.839844 0.0391,0.01953 0.0391,0.117188 0,0.3125 -0.83984,0.3125 h -0.27344 q -0.11719,0 -0.23438,0.136718 -0.11718,0.136719 -0.17578,0.136719 -0.0195,0 -0.19531,-0.117187 -0.15625,-0.117188 -0.48828,-0.15625 l -0.23438,-0.234375 q -0.42968,0.117187 -0.83984,0.117187 -0.3125,0 -0.87891,-0.07813 -0.54687,-0.07813 -0.80078,-0.07813 -0.21484,0 -0.91797,0.117188 -0.68359,0.117187 -1.21093,0.117187 l -1.91407,-0.07813 q -1.54296,0 -2.79296,0.273438 -0.17579,0.09766 -0.52735,0.15625 -0.33203,0.03906 -0.37109,0.3125 -0.0195,0.253906 -0.39063,0.410156 -0.19531,0.800781 -0.19531,1.445312 0,0.507813 0.29297,1.933594 0.29297,1.425781 0.78125,2.03125 0.11719,0.136719 1.67969,1.25 0.99609,0.742188 2.14843,1.132813 1.17188,0.371093 2.69532,0.371093 0.60547,0 1.5039,-0.09766 l 0.82032,-0.09766 h 1.26953 q 0.19531,0 0.72265,-0.351563 0.54688,-0.351562 1.09375,-0.410156 0.23438,0.546875 0.23438,0.957031 0,0.917969 -0.56641,1.601563 -0.54687,0.683594 -1.26953,0.683594 l -0.41016,-0.07813 -1.23046,0.03906 h -1.05469 q -0.74219,0 -3.65235,-0.625 -2.91015,-0.625 -4.29687,-1.640625 -1.38672,-1.015625 -2.03125,-2.617187 -0.64453,-1.621094 -0.64453,-3.125 0,-2.03125 0.78125,-4.121094 0.78125,-2.109375 1.77734,-3.261719 0.9961,-1.171875 3.02735,-2.421875 0.19531,-0.09766 0.58593,-0.390625 0.41016,-0.3125 0.78125,-0.3125 l 0.64453,0.03906 q 0.41016,-0.273438 1.46485,-0.449219 1.07422,-0.195313 1.73828,-0.195313 1.19141,0 2.59766,0.878907 1.42578,0.878906 1.71875,3.671875 0.0586,0.488281 0.15625,0.800781 0.11718,0.292969 0.11718,0.332031 0,0.117188 -0.0781,0.273438 z m -8.00781,-4.277344 q -0.11719,0.175781 -1.11329,0.644531 -0.48828,0.351563 -0.9375,0.800781 -0.44921,0.449219 -0.8789,0.976563 -0.42969,0.507812 -0.76172,0.917969 -0.3125,0.410156 -0.48828,0.625 -0.17578,0.195312 -0.17578,0.351562 0,0.214844 0.27343,0.3125 l 0.25391,0.09766 h 1.44531 l 6.79688,-0.253906 q 1.30859,0 1.30859,-1.152344 0,-1.210937 -0.48828,-2.109375 -0.46875,-0.917968 -2.5,-1.445312 -0.23437,0 -0.66406,-0.03906 -0.42969,-0.03906 -0.625,-0.03906 -0.17578,0 -1.44531,0.3125 z"
     id="path42177" /><path
     d="m 205.80234,42.068176 q 1.26953,-0.214843 2.1289,-0.214843 5.3125,0 5.3125,6.640625 0,3.691406 -1.21093,8.535156 -0.54688,2.089844 -0.54688,2.792969 0,0.15625 0.0781,0.3125 -0.23438,1.210937 -1.42578,1.210937 -0.70313,0 -1.28907,-0.390625 -0.5664,-0.390625 -0.5664,-0.820312 0,-0.644532 0.82031,-1.601563 0.82031,-0.957031 1.50391,-3.730469 0.68359,-2.773437 0.68359,-5.585937 0,-5.761719 -4.72656,-5.761719 -1.85547,0 -3.4961,0.761719 -1.62109,0.761719 -1.85547,1.679687 -0.17578,0.195313 -0.52734,0.390625 -0.3125,0.15625 -0.37109,0.292969 -0.0391,0.117188 -0.19532,2.949219 -0.15625,2.832031 -0.15625,4.296875 v 0.917969 q 0,0.722656 0.23438,1.328125 0.25391,0.605468 0.25391,0.703125 l -0.0391,0.683593 q 0,0.644532 -0.23437,1.035157 -0.21485,0.371093 -0.56641,0.371093 h -0.0781 l -0.11719,0.273438 q -0.23438,-0.07813 -0.33203,-0.07813 -0.27344,0 -0.70313,0.3125 h -0.0976 q -0.21485,0 -0.66407,-0.507813 -0.64453,0 -0.64453,-0.488281 0,-0.429687 0.27344,-0.722656 0.25391,0 0.58594,-2.558594 0.33203,-2.578125 0.33203,-6.523437 0,-5.117188 -0.83984,-5.839844 l -0.0391,-0.351563 q 0,-0.742187 0.85938,-0.996093 0.35156,-0.09766 0.625,-0.527344 0.29297,-0.429688 0.60547,-0.429688 h 0.0391 q 0.39062,-0.05859 0.66406,-0.195312 0.29297,-0.136719 0.33203,-0.136719 0.27344,0 0.27344,0.761719 0,0.585937 -0.23437,1.347656 -0.23438,0.742188 -0.23438,0.9375 0,0.292969 0.19531,0.507813 0.21485,0.214843 0.52735,0.214843 h 0.11718 q 0.54688,-0.527343 0.58594,-0.527343 h 0.0586 q 1.875,0 2.83203,-0.761719 0.17578,-0.01953 0.42968,-0.05859 0.25391,-0.05859 0.33204,-0.05859 0.46875,-0.292968 0.50781,-0.390625 z"
     id="path42179" /><path
     d="m 227.93124,41.81427 q 0.0195,0.117188 0.23438,0.214844 0.21484,0.07813 0.23437,0.07813 h 0.21485 q 0.64453,0 1.11328,0.292969 0.46875,0.292968 0.46875,0.664062 0,0.390625 -0.54688,0.761719 l -0.23437,-0.253906 q -0.27344,0.488281 -0.9375,0.605468 l -0.11719,-0.234375 -0.23437,0.07813 q -0.85938,-0.390625 -1.75782,-0.390625 l -1.83593,0.07813 q -0.39063,0 -1.17188,-0.07813 -0.50781,3.789063 -0.50781,5.957032 0,0.800781 0.0781,1.875 0.0977,1.054687 0.35157,1.738281 0.2539,0.664062 0.50781,1.230469 0.25391,0.566406 0.85937,1.132812 0.60547,0.546875 1.11329,0.78125 0.52734,0.234375 0.89843,0.664063 0.39063,0.410156 1.99219,0.410156 h 0.39063 q 0.37109,0.292969 0.37109,0.488281 0,0.214844 -0.29297,0.664063 -0.27344,0.449218 -0.44922,0.761718 -0.15625,0.3125 -0.54687,0.683594 h -0.0781 q -0.0976,0 -0.15625,-0.117187 -0.68359,0 -1.21094,-0.15625 0,0.03906 -0.0391,0.03906 -0.0391,0 -0.19531,-0.117187 -0.13672,-0.09766 -0.27344,-0.15625 -0.13672,-0.273438 -0.5664,-0.488282 -0.87891,-0.3125 -1.64063,-0.917968 -0.74219,-0.605469 -1.54297,-1.71875 -0.80078,-1.113282 -1.01562,-2.050782 -0.19532,-0.9375 -0.33203,-2.246093 -0.11719,-1.328125 -0.11719,-2.832032 0,-2.539062 0.37109,-5.585937 l -0.41015,-0.136719 -0.11719,0.253906 h -0.27344 l -0.0781,-0.253906 q -4.53125,-0.175781 -4.53125,-0.878906 0,-0.253906 0.29296,-0.449219 0.27344,-0.214844 1.64063,-0.214844 h 0.76172 l 0.82031,-0.195312 q 0.44922,-0.09766 0.87891,-0.351563 0.42968,-0.253906 0.74218,-0.625 0.33204,-0.371093 0.60547,-2.597656 0.17578,-1.367187 0.17578,-2.910156 v -0.800781 q 0,-0.371094 0.27344,-1.054688 0.27344,-0.683594 0.66406,-1.074219 0.41016,-0.390625 0.58594,-0.390625 0.39063,0 0.82031,0.15625 0.42969,0.136719 0.48829,0.195313 0.0586,0.05859 0.13671,0.3125 0.0781,0.234375 0.19532,0.371094 v 0.07813 q 0,0.07813 -0.15625,0.117187 -0.13672,0.03906 -0.17578,0.07813 -0.0391,0.03906 -0.0781,0.07813 -0.0195,0.03906 -0.27344,1.054688 -0.2539,1.015625 -0.42968,2.03125 -0.17579,1.015625 -0.27344,1.992187 -0.0977,0.976563 -0.0977,1.933594 0,1.367187 0.11719,1.542969 0.11719,0.175781 0.33203,0.175781 0.0977,0 0.48828,-0.117188 0.41016,-0.136718 0.74219,-0.136718 0.17578,0 0.29297,0.03906 l 0.23437,0.488281 q 0.11719,0.03906 0.3125,0.03906 0.21485,0 0.82032,-0.253906 0.625,-0.273438 1.07421,-0.351563 z"
     id="path42181" /><path
     d="m 241.13437,49.021301 q 1.52344,1.367188 1.52344,3.28125 0,2.480469 -1.54297,4.511719 -1.52344,2.011719 -3.94531,2.402344 -0.52735,0 -1.48438,0.07813 -0.72266,0.292969 -1.52344,0.292969 -1.05468,0 -1.66015,-0.429688 -0.60547,-0.429687 -0.60547,-1.699219 0,-0.371093 0.0391,-0.566406 h 0.15625 q 0.39063,0 0.74219,0.214844 0.35156,0.195312 0.44922,0.195312 l 0.11718,-0.03906 q 0.66407,0.644531 2.2461,0.644531 1.5039,0 2.73437,-0.527344 1.23047,-0.546875 1.81641,-1.796875 0.60547,-1.25 0.60547,-2.246093 0,-1.445313 -1.11328,-2.402344 -1.09375,-0.957031 -4.96094,-2.148438 -0.58594,-0.09766 -0.76172,-0.253906 l -0.89844,-0.78125 q -0.72265,-0.605469 -0.9375,-1.210937 l -0.19531,-0.605469 q 0,-3.085938 1.77734,-4.375 1.79688,-1.308594 6.17188,-1.308594 l 1.09375,0.05859 q 0.0977,0 0.39062,-0.09766 0.3125,0.3125 0.3125,0.878906 0,0.644531 -0.21484,1.230469 -0.21484,0.566406 -0.44922,0.664062 -0.17578,-0.351562 -0.41015,-0.527344 h -0.0391 q -0.0586,0 -0.17578,0.07813 -0.11719,0.05859 -0.17578,0.07813 -0.91797,-1.035156 -2.28516,-1.035156 -2.63671,0 -3.47656,1.015625 -0.83984,0.996094 -0.83984,2.226563 0,1.777343 2.83203,2.441406 2.07031,0.507812 3.37891,1.054687 1.30859,0.527344 1.30859,0.703125 z"
     id="path42183" /></g><g
   aria-label="olicomics"
   id="text18546"
   style="font-size:56.6705px;line-height:1.25;font-family:'Alexis Halftone';-inkscape-font-specification:'Alexis Halftone';fill:#f1f1f1;stroke-width:1.41676"
   transform="matrix(0.94215662,0,0,0.94215662,8,-0.3656369)"><path
     d="m 51.003464,28.254974 v -12.46751 h 8.047211 v 7.310495 h 17.794537 c 1.246751,-0.283353 2.096809,-0.623376 2.493502,-1.07674 0.396694,-0.453364 0.680046,-1.13341 0.850058,-2.153479 v -4.080276 h 7.990541 v 7.820529 c 0,0.453364 -0.226682,0.963399 -0.623376,1.530104 -0.453364,0.566705 -0.963398,1.020069 -1.586774,1.473433 -0.623375,0.453364 -1.303421,0.850057 -2.040138,1.19008 -0.736716,0.340023 -1.416762,0.453364 -1.983467,0.453364 z M 51.286816,7.6269117 c 0.113341,-0.226682 0.226682,-0.5100345 0.453364,-0.7367165 0.170012,-0.226682 0.396694,-0.453364 0.623376,-0.680046 h 35.815757 v 1.4167625 z m 28.901956,1.5301036 h -18.02122 c -0.906728,0.2833525 -1.586774,0.6233755 -2.040138,1.0767397 h -9.12395 V 8.8169923 8.5903103 H 88.179313 V 10.233755 H 80.188772 Z M 88.179313,3.9999996 V 4.9633982 H 54.120341 C 55.310422,4.3400226 56.500502,3.9999996 57.690583,3.9999996 Z M 51.003464,15.560782 v -2.153479 h 8.047211 v 2.153479 z m 29.185308,0 v -2.153479 h 7.990541 v 2.153479 z m -21.138097,-3.34356 v 0.680046 h -8.047211 v -1.870126 h 8.500575 c -0.226682,0.396693 -0.396694,0.793387 -0.453364,1.19008 z m 21.138097,0.680046 v -1.870126 h 7.990541 v 1.870126 z"
     id="path42186" /><path
     d="m 99.060027,28.254974 c -0.680046,0 -1.473433,-0.170011 -2.32349,-0.623375 -0.906728,-0.396694 -1.700115,-0.906728 -2.436832,-1.586774 -0.793387,-0.623376 -1.416762,-1.303422 -1.926797,-2.096809 -0.566705,-0.793387 -0.793387,-1.530103 -0.793387,-2.210149 v -5.950403 h 7.990541 v 5.043675 c 0.453368,1.19008 1.643448,1.926797 3.513568,2.26682 h 18.41792 v 5.157015 z M 91.579521,15.560782 v -2.153479 h 7.990541 v 2.153479 z m 0,-2.663514 v -1.870126 h 7.990541 v 1.870126 z m 0,-2.663513 V 8.5903103 h 7.990541 v 1.6434447 z m 0,-2.6068433 V 6.2101492 h 7.990541 v 1.4167625 z m 0,-3.6269121 h 7.990541 v 0.9633986 h -7.990541 z"
     id="path42188" /><path
     d="m 132.72226,28.254974 h -7.82053 v -12.46751 h 7.82053 z m -7.82053,-12.694192 v -2.153479 h 7.82053 v 2.153479 z m 0,-2.663514 v -1.870126 h 7.82053 v 1.870126 z m 0,-2.663513 V 8.5903103 h 7.82053 v 1.6434447 z m 0,-2.6068433 V 6.2101492 h 7.82053 v 1.4167625 z m 0,-3.6269121 h 7.82053 v 0.9633986 h -7.82053 z"
     id="path42190" /><path
     d="m 136.1225,28.254974 v -12.46751 h 7.99054 v 7.310495 h 29.12864 v 5.157015 z m 0.45336,-20.6280623 c 0.11334,-0.226682 0.22668,-0.453364 0.45337,-0.680046 0.17001,-0.226682 0.34002,-0.5100345 0.5667,-0.7367165 h 35.70242 V 7.6269117 Z M 136.1225,10.233755 V 8.8169923 c 0,-0.113341 0,-0.1700115 0.0567,-0.226682 h 37.11918 v 0.566705 h -25.89842 c -0.90673,0.2833525 -1.58678,0.6233755 -2.09681,1.0767397 z m 3.11687,-5.2703568 c 1.07674,-0.6233756 2.26683,-0.9633986 3.57025,-0.9633986 h 30.48873 V 4.9633982 Z M 136.1225,15.560782 v -2.153479 h 7.99054 v 2.153479 z m 8.50057,-4.53364 c -0.22668,0.340023 -0.39669,0.736716 -0.51003,1.19008 v 0.680046 h -7.99054 v -1.870126 z"
     id="path42192" /><path
     d="m 176.69855,28.254974 v -12.46751 h 8.04721 v 7.310495 h 17.79454 c 1.24675,-0.283353 2.0968,-0.623376 2.4935,-1.07674 0.39669,-0.453364 0.68004,-1.13341 0.85006,-2.153479 v -4.080276 h 7.99054 v 7.820529 c 0,0.453364 -0.22669,0.963399 -0.62338,1.530104 -0.45336,0.566705 -0.9634,1.020069 -1.58677,1.473433 -0.62338,0.453364 -1.30342,0.850057 -2.04014,1.19008 -0.73672,0.340023 -1.41676,0.453364 -1.98347,0.453364 z M 176.9819,7.6269117 c 0.11334,-0.226682 0.22668,-0.5100345 0.45336,-0.7367165 0.17002,-0.226682 0.3967,-0.453364 0.62338,-0.680046 h 35.81576 v 1.4167625 z m 28.90196,1.5301036 h -18.02122 c -0.90673,0.2833525 -1.58678,0.6233755 -2.04014,1.0767397 h -9.12395 V 8.8169923 8.5903103 h 37.17585 v 1.6434447 h -7.99054 z m 7.99054,-5.1570157 v 0.9633986 h -34.05898 c 1.19009,-0.6233756 2.38017,-0.9633986 3.57025,-0.9633986 z M 176.69855,15.560782 v -2.153479 h 8.04721 v 2.153479 z m 29.18531,0 v -2.153479 h 7.99054 v 2.153479 z m -21.1381,-3.34356 v 0.680046 h -8.04721 v -1.870126 h 8.50057 c -0.22668,0.396693 -0.39669,0.793387 -0.45336,1.19008 z m 21.1381,0.680046 v -1.870126 h 7.99054 v 1.870126 z"
     id="path42194" /><path
     d="m 244.24977,28.254974 h -7.99054 v -12.46751 h 7.99054 z m -18.98462,0 h -7.99054 v -12.46751 h 7.99054 z m 37.96924,0 h -7.99054 v -12.46751 h 7.99054 z M 242.83301,6.2101492 c 0.11334,0.113341 0.22668,0.1700115 0.34002,0.2833525 0.11334,0.113341 0.22668,0.226682 0.34002,0.2833525 v -0.566705 h 17.6812 c 0.17001,0.226682 0.39669,0.453364 0.62338,0.680046 0.22668,0.226682 0.39669,0.5100345 0.62337,0.7367165 H 217.27461 V 6.2101492 Z m 11.44744,4.0236058 C 253.82709,9.7803908 253.0337,9.4403678 251.95696,9.1570153 h -7.70719 v 1.0767397 h -9.06728 c -0.28335,-0.226682 -0.62337,-0.3966937 -1.02007,-0.5667052 -0.39669,-0.113341 -0.90673,-0.2833525 -1.5301,-0.5100345 h -7.36717 v 1.0767397 h -7.99054 V 8.5903103 h 45.7331 c 0.0567,0.113341 0.11334,0.1700115 0.11334,0.226682 0,0.113341 0.0567,0.1700115 0.11334,0.226682 V 10.233755 Z M 217.27461,4.9633982 V 3.9999996 h 19.77801 c 0.62337,0 1.24675,0.05667 1.87012,0.1700115 0.62338,0.113341 1.3601,0.3966936 2.15348,0.7933871 z m 37.96924,10.5973838 v -2.153479 h 7.99054 v 2.153479 z m -37.96924,0 v -2.153479 h 7.99054 v 2.153479 z m 18.98462,0 v -2.153479 h 7.99054 v 2.153479 z m 18.98462,-2.663514 v -0.680046 c -0.11334,-0.226682 -0.17001,-0.396693 -0.22668,-0.623375 -0.0567,-0.170012 -0.11334,-0.340023 -0.17002,-0.566705 h 8.38724 v 1.870126 z m -18.98462,0 v -0.680046 c -0.11334,-0.170011 -0.17001,-0.340023 -0.22668,-0.566705 -0.11334,-0.226682 -0.17001,-0.396693 -0.22668,-0.623375 h 8.4439 v 1.870126 z m -18.98462,0 v -1.870126 h 7.99054 v 1.870126 z M 243.51305,4.9633982 V 3.9999996 h 12.80754 c 1.02007,0 2.04014,0.340023 3.17355,0.9633986 z"
     id="path42196" /><path
     d="m 274.45505,28.254974 h -7.82053 v -12.46751 h 7.82053 z m -7.82053,-12.694192 v -2.153479 h 7.82053 v 2.153479 z m 0,-2.663514 v -1.870126 h 7.82053 v 1.870126 z m 0,-2.663513 V 8.5903103 h 7.82053 v 1.6434447 z m 0,-2.6068433 V 6.2101492 h 7.82053 v 1.4167625 z m 0,-3.6269121 h 7.82053 v 0.9633986 h -7.82053 z"
     id="path42198" /><path
     d="m 277.85529,28.254974 v -12.46751 h 7.99054 v 7.310495 h 29.12863 v 5.157015 z m 0.45336,-20.6280623 c 0.11334,-0.226682 0.22668,-0.453364 0.45336,-0.680046 0.17002,-0.226682 0.34003,-0.5100345 0.56671,-0.7367165 h 35.70241 v 1.4167625 z m -0.45336,2.6068433 V 8.8169923 c 0,-0.113341 0,-0.1700115 0.0567,-0.226682 h 37.11917 v 0.566705 h -25.89841 c -0.90673,0.2833525 -1.58678,0.6233755 -2.09681,1.0767397 z m 3.11687,-5.2703568 c 1.07674,-0.6233756 2.26682,-0.9633986 3.57024,-0.9633986 h 30.48873 v 0.9633986 z m -3.11687,10.5973838 v -2.153479 h 7.99054 v 2.153479 z m 8.50057,-4.53364 c -0.22668,0.340023 -0.39669,0.736716 -0.51003,1.19008 v 0.680046 h -7.99054 v -1.870126 z"
     id="path42200" /><path
     d="M 318.43135,22.984618 H 347.73 c 0.28335,0 0.51003,-0.05667 0.73672,-0.226682 0.17001,-0.170012 0.34002,-0.396694 0.45336,-0.623376 0.11334,-0.226682 0.17001,-0.453364 0.22668,-0.680046 0,-0.226682 0.0567,-0.453364 0.0567,-0.623375 0,-0.340023 -0.17001,-0.736717 -0.39669,-1.303422 -0.22668,-0.510034 -0.56671,-0.793387 -0.9634,-0.793387 H 318.7714 c 0,-0.453364 0,-0.963398 0.0567,-1.473433 0,-0.453364 0.0567,-0.963398 0.17002,-1.473433 h 36.94916 c 0.51004,0.736717 0.90673,1.530104 1.24675,2.436832 0.34003,0.906728 0.51004,1.756785 0.51004,2.606843 v 0.113341 c 0,0.850057 -0.17001,1.700115 -0.3967,2.550172 -0.22668,0.906728 -0.5667,1.700115 -1.02006,2.380161 -0.45337,0.680046 -1.02007,1.246751 -1.64345,1.700115 -0.62337,0.453364 -1.30342,0.680046 -2.04014,0.680046 h -34.17231 z m 0.62338,-7.423836 c 0.0567,-0.340023 0.11334,-0.736717 0.22668,-1.07674 0.11334,-0.340023 0.22668,-0.680046 0.34002,-1.076739 h 9.69066 c 0,0.113341 0,0.170011 0.0567,0.170011 h 23.46159 c 0.45336,0 0.96339,0.226682 1.47343,0.566705 0.51003,0.340023 1.02007,0.850058 1.47343,1.416763 z m 4.13694,-7.9338703 c 0.22668,-0.226682 0.45337,-0.453364 0.73672,-0.680046 0.28335,-0.226682 0.62337,-0.453364 0.9634,-0.7367165 h 29.80868 v 1.4167625 z m -2.04014,2.6068433 0.56671,-0.7933872 c 0.17001,-0.226682 0.34002,-0.5100345 0.5667,-0.8500575 h 32.41553 v 0.5100345 h -22.78154 c -0.11334,0 -0.28335,0.113341 -0.56671,0.340023 -0.28335,0.226682 -0.5667,0.5100345 -0.85005,0.7933872 z m 6.00708,-5.2703568 c 1.58677,-0.6233756 3.17355,-0.9633986 4.76032,-0.9633986 h 22.78154 v 0.9633986 z m -7.3105,7.9338698 c 0.22669,-0.566705 0.51004,-1.19008 0.85006,-1.870126 h 9.12395 c -0.22668,0.340023 -0.39669,0.623375 -0.51003,0.850057 -0.17001,0.283353 -0.22669,0.510035 -0.22669,0.680046 0,0.226682 0,0.340023 0.0567,0.340023 z"
     id="path42202" /></g><g
   aria-label="S"
   id="text32238"
   style="font-size:56.6705px;line-height:1.25;font-family:'Alexis Halftone';-inkscape-font-specification:'Alexis Halftone';fill:#28b397;stroke-width:1.41676"
   transform="matrix(0.94215662,0,0,0.94215662,8,-0.3656369)"><path
     d="m 45.563083,20.94448 c 0,0.850057 -0.170011,1.700115 -0.396693,2.550172 -0.226682,0.906728 -0.566705,1.700115 -1.020069,2.380161 -0.453364,0.680046 -0.963399,1.246751 -1.586774,1.700115 -0.623376,0.453364 -1.303422,0.680046 -1.983468,0.680046 H -3.3378601e-8 V 22.984618 H 35.589075 c 0.283353,0 0.510035,-0.05667 0.736717,-0.226682 0.170011,-0.170012 0.340023,-0.396694 0.453364,-0.623376 0.113341,-0.226682 0.170011,-0.453364 0.226682,-0.680046 0,-0.226682 0.05667,-0.453364 0.05667,-0.623375 0,-0.340023 -0.113341,-0.736717 -0.340023,-1.303422 C 36.495803,19.017683 36.15578,18.73433 35.759087,18.73433 H 6.6871192 c 0,-0.453364 0,-0.963398 0.056671,-1.473433 0,-0.453364 0.056671,-0.963398 0.1700115,-1.473433 H 43.862968 c 0.453364,0.736717 0.850058,1.530104 1.190081,2.436832 0.340023,0.906728 0.510034,1.756785 0.510034,2.606843 z m -4.760322,-7.367166 c 0.453364,0 0.963399,0.226682 1.473433,0.566705 0.510035,0.340023 0.963399,0.850058 1.416763,1.416763 H 6.9704717 c 0.056671,-0.340023 0.113341,-0.736717 0.226682,-1.07674 0.113341,-0.340023 0.226682,-0.680046 0.340023,-1.076739 h 9.7473263 c 0,0.113341 0,0.170011 0.05667,0.170011 z M 11.050748,7.6269117 c 0.226682,-0.226682 0.453364,-0.453364 0.736716,-0.680046 0.283353,-0.226682 0.623376,-0.453364 0.963399,-0.7367165 h 29.808684 v 1.4167625 z m 8.727257,1.4734331 c -0.113341,0 -0.283352,0.113341 -0.510034,0.340023 -0.226682,0.226682 -0.510035,0.5100345 -0.793387,0.7933872 H 9.0106097 C 9.4639738,9.4970383 9.8606673,8.9303333 10.20069,8.5903103 H 42.559547 V 9.1003448 Z M 42.559547,3.9999996 V 4.9633982 H 15.017683 C 16.604457,4.3400226 18.191231,3.9999996 19.778005,3.9999996 Z M 17.00115,12.783927 v 0.113341 H 7.7638587 c 0.113341,-0.283352 0.226682,-0.566705 0.340023,-0.906728 0.113341,-0.340023 0.2833525,-0.623375 0.453364,-0.963398 h 9.2939623 c -0.566705,0.680046 -0.850058,1.303421 -0.850058,1.756785 z"
     id="path42205" /></g></svg>
