<?xml version="1.0" encoding="UTF-8"?>
<!-- Generator: Adobe Illustrator 25.0.1, SVG Export Plug-In . SVG Version: 6.00 Build 0)  -->
<svg version="1.1" id="Layer_1" xmlns="http://www.w3.org/2000/svg" xmlns:xlink="http://www.w3.org/1999/xlink" x="0px" y="0px" viewBox="0 0 33.7 24.1" style="enable-background:new 0 0 33.7 24.1;" xml:space="preserve">
<style type="text/css">
	.st0{fill:url(#SVGID_1_);}
	.st1{fill:url(#SVGID_2_);}
	.st2{fill:url(#SVGID_3_);}
	.st3{fill:url(#SVGID_4_);}
	.st4{fill:#7F4601;}
	.st5{fill:url(#SVGID_5_);}
	.st6{fill:url(#SVGID_6_);}
	.st7{fill:url(#SVGID_7_);}
	.st8{fill:url(#SVGID_8_);}
</style>
<g>
	<g>
		<g>
			<g>
				<g>
					
						<linearGradient id="SVGID_1_" gradientUnits="userSpaceOnUse" x1="-417.955" y1="2.7422" x2="-417.955" y2="21.3762" gradientTransform="matrix(-1 0 0 1 -410.2119 0)">
						<stop offset="0" style="stop-color:#FCAB31"/>
						<stop offset="1" style="stop-color:#7F4601"/>
					</linearGradient>
					<path class="st0" d="M9.2,21.4c0.2,0,0.5-0.1,0.7-0.2c0.5-0.4,0.5-1,0.2-1.5c-1.8-2.2-2.7-4.8-2.7-7.6S8.3,6.6,10,4.4       C10.4,4,10.3,3.3,9.9,3C9.4,2.6,8.7,2.7,8.4,3.1c-2.1,2.6-3.2,5.7-3.2,8.9s1.1,6.3,3.2,8.9C8.6,21.2,8.9,21.4,9.2,21.4z"/>
				</g>
				<g>
					
						<linearGradient id="SVGID_2_" gradientUnits="userSpaceOnUse" x1="-413.3007" y1="3.483055e-07" x2="-413.3007" y2="24.1184" gradientTransform="matrix(-1 0 0 1 -410.2119 0)">
						<stop offset="0" style="stop-color:#FCAB31"/>
						<stop offset="1" style="stop-color:#7F4601"/>
					</linearGradient>
					<path class="st1" d="M5.1,24.1c0.2,0,0.5-0.1,0.7-0.2c0.4-0.4,0.5-1,0.1-1.5c-2.5-3-3.8-6.5-3.8-10.3c0-3.8,1.3-7.4,3.8-10.3       c0.4-0.4,0.3-1.1-0.1-1.5C5.4-0.1,4.7-0.1,4.3,0.4C1.5,3.7,0,7.8,0,12.1c0,4.2,1.5,8.4,4.3,11.7C4.5,24,4.8,24.1,5.1,24.1z"/>
				</g>
				<g>
					
						<linearGradient id="SVGID_3_" gradientUnits="userSpaceOnUse" x1="-422.6459" y1="5.6725" x2="-422.6459" y2="18.4465" gradientTransform="matrix(-1 0 0 1 -410.2119 0)">
						<stop offset="0" style="stop-color:#FCAB31"/>
						<stop offset="1" style="stop-color:#7F4601"/>
					</linearGradient>
					<path class="st2" d="M13.3,18.4c0.2,0,0.4-0.1,0.6-0.2c0.5-0.3,0.6-1,0.3-1.5c-1-1.4-1.5-3-1.5-4.7s0.5-3.3,1.5-4.7       c0.3-0.5,0.2-1.1-0.3-1.5s-1.1-0.2-1.5,0.3c-1.2,1.8-1.9,3.8-1.9,5.9s0.7,4.2,1.9,5.9C12.6,18.3,13,18.4,13.3,18.4z"/>
				</g>
			</g>
			
				<linearGradient id="SVGID_4_" gradientUnits="userSpaceOnUse" x1="-436.1182" y1="1.1896" x2="-436.1182" y2="22.9273" gradientTransform="matrix(-1 0 0 1 -410.2119 0)">
				<stop offset="0" style="stop-color:#FCAB31"/>
				<stop offset="1" style="stop-color:#7F4601"/>
			</linearGradient>
			<path class="st3" d="M18.1,2.2v19.7c0,0.9,1,1.3,1.6,0.8l6.4-5.6h6.7c0.5,0,0.9-0.4,0.9-0.9V7.9c0-0.5-0.4-0.9-0.9-0.9h-6.7     l-6.4-5.6C19.1,0.9,18.1,1.3,18.1,2.2z M20.1,4.4L25.4,9h6.3v6h-6.3l-5.3,4.6V4.4z"/>
			<g>
				<polygon class="st4" points="25.4,8.8 31.7,8.8 31.7,9 25.4,9 20.1,4.4 20.1,4.1     "/>
				<path class="st4" d="M19.7,22.4l6.4-5.6h6.7c0.5,0,0.9-0.4,0.9-0.9v0.3c0,0.5-0.4,0.9-0.9,0.9h-6.7l-6.4,5.6      c-0.6,0.6-1.6,0.1-1.6-0.8v-0.3C18.1,22.5,19.1,23,19.7,22.4z"/>
			</g>
			
				<linearGradient id="SVGID_5_" gradientUnits="userSpaceOnUse" x1="-436.1199" y1="1.1914" x2="-436.1199" y2="15.4127" gradientTransform="matrix(-1 0 0 1 -410.2119 0)">
				<stop offset="0" style="stop-color:#FCAB31"/>
				<stop offset="1" style="stop-color:#7F4601"/>
			</linearGradient>
			<path class="st5" d="M18.1,2.2v12.2c0,0.8,1,1.3,1.6,0.8l0.4-0.3V4.4L25.4,9h6.3v0.5h1.1c0.5,0,0.9-0.4,0.9-0.9V7.9     c0-0.5-0.4-0.9-0.9-0.9h-6.7l-6.4-5.6C19.1,0.9,18.1,1.3,18.1,2.2z"/>
			
				<linearGradient id="SVGID_6_" gradientUnits="userSpaceOnUse" x1="-436.1199" y1="1.1914" x2="-436.1199" y2="15.4127" gradientTransform="matrix(-1 0 0 1 -410.2119 0)">
				<stop offset="0" style="stop-color:#FCAB31"/>
				<stop offset="1" style="stop-color:#7F4601"/>
			</linearGradient>
			<path class="st6" d="M18.1,2.2v12.2c0,0.8,1,1.3,1.6,0.8l0.4-0.3V4.4L25.4,9h6.3v0.5h1.1c0.5,0,0.9-0.4,0.9-0.9V7.9     c0-0.5-0.4-0.9-0.9-0.9h-6.7l-6.4-5.6C19.1,0.9,18.1,1.3,18.1,2.2z"/>
		</g>
		<g>
			
				<linearGradient id="SVGID_7_" gradientUnits="userSpaceOnUse" x1="-436.1182" y1="15.0813" x2="-436.1182" y2="19.7248" gradientTransform="matrix(-1 0 0 1 -410.2119 0)">
				<stop offset="0" style="stop-color:#FCAB31"/>
				<stop offset="1" style="stop-color:#F9A930"/>
			</linearGradient>
			<polygon class="st7" points="25.4,15.4 20.1,19.7 20.1,19.7 25.4,15.1 31.7,15.1 31.7,15.1    "/>
			
				<linearGradient id="SVGID_8_" gradientUnits="userSpaceOnUse" x1="-436.1182" y1="1.1896" x2="-436.1182" y2="8.1785" gradientTransform="matrix(-1 0 0 1 -410.2119 0)">
				<stop offset="0" style="stop-color:#FCAB31"/>
				<stop offset="1" style="stop-color:#F9A930"/>
			</linearGradient>
			<path class="st8" d="M19.7,1.4L26.2,7h6.7c0.5,0,0.9,0.4,0.9,0.9v0.3c0-0.5-0.4-0.9-0.9-0.9h-6.7l-6.4-5.6     c-0.6-0.6-1.6-0.1-1.6,0.8V2.2C18.1,1.3,19.1,0.9,19.7,1.4z"/>
		</g>
	</g>
</g>
</svg>