<?xml version="1.0" encoding="UTF-8"?>
<!-- Generator: Adobe Illustrator 25.0.1, SVG Export Plug-In . SVG Version: 6.00 Build 0)  -->
<svg version="1.1" id="Layer_1" xmlns="http://www.w3.org/2000/svg" xmlns:xlink="http://www.w3.org/1999/xlink" x="0px" y="0px" viewBox="0 0 33.7 24.1" style="enable-background:new 0 0 33.7 24.1;" xml:space="preserve">
<style type="text/css">
	.st0{fill:url(#SVGID_1_);}
	.st1{fill:url(#SVGID_2_);}
	.st2{fill:url(#SVGID_3_);}
	.st3{fill:url(#SVGID_4_);}
	.st4{fill:#7F4601;}
	.st5{fill:url(#SVGID_5_);}
	.st6{fill:url(#SVGID_6_);}
	.st7{fill:url(#SVGID_7_);}
	.st8{fill:url(#SVGID_8_);}
</style>
<g>
	<g>
		<g>
			<g>
				<g>
					<linearGradient id="SVGID_1_" gradientUnits="userSpaceOnUse" x1="25.9755" y1="2.7422" x2="25.9755" y2="21.3762">
						<stop offset="0" style="stop-color:#FCAB31"/>
						<stop offset="1" style="stop-color:#7F4601"/>
					</linearGradient>
					<path class="st0" d="M24.5,21.4c-0.2,0-0.5-0.1-0.7-0.2c-0.5-0.4-0.5-1-0.2-1.5c1.8-2.2,2.7-4.8,2.7-7.6s-0.9-5.4-2.7-7.6       C23.3,4,23.4,3.3,23.9,3c0.5-0.4,1.1-0.3,1.5,0.2c2.1,2.6,3.2,5.7,3.2,8.9s-1.1,6.3-3.2,8.9C25.1,21.2,24.8,21.4,24.5,21.4z"/>
				</g>
				<g>
					<linearGradient id="SVGID_2_" gradientUnits="userSpaceOnUse" x1="30.6298" y1="1.091394e-11" x2="30.6298" y2="24.1184">
						<stop offset="0" style="stop-color:#FCAB31"/>
						<stop offset="1" style="stop-color:#7F4601"/>
					</linearGradient>
					<path class="st1" d="M28.6,24.1c-0.2,0-0.5-0.1-0.7-0.2c-0.4-0.4-0.5-1-0.1-1.5c2.5-3,3.8-6.5,3.8-10.3c0-3.8-1.3-7.4-3.8-10.3       c-0.4-0.4-0.3-1.1,0.1-1.5c0.4-0.4,1.1-0.3,1.5,0.1c2.8,3.3,4.3,7.4,4.3,11.7c0,4.2-1.5,8.4-4.3,11.7       C29.2,24,28.9,24.1,28.6,24.1z"/>
				</g>
				<g>
					<linearGradient id="SVGID_3_" gradientUnits="userSpaceOnUse" x1="21.2846" y1="5.6725" x2="21.2846" y2="18.4465">
						<stop offset="0" style="stop-color:#FCAB31"/>
						<stop offset="1" style="stop-color:#7F4601"/>
					</linearGradient>
					<path class="st2" d="M20.4,18.4c-0.2,0-0.4-0.1-0.6-0.2c-0.5-0.3-0.6-1-0.3-1.5c1-1.4,1.5-3,1.5-4.7s-0.5-3.3-1.5-4.7       c-0.3-0.5-0.2-1.1,0.3-1.5s1.1-0.2,1.5,0.3c1.2,1.8,1.9,3.8,1.9,5.9s-0.7,4.2-1.9,5.9C21.1,18.3,20.8,18.4,20.4,18.4z"/>
				</g>
			</g>
			<linearGradient id="SVGID_4_" gradientUnits="userSpaceOnUse" x1="7.8123" y1="1.1896" x2="7.8123" y2="22.9273">
				<stop offset="0" style="stop-color:#FCAB31"/>
				<stop offset="1" style="stop-color:#7F4601"/>
			</linearGradient>
			<path class="st3" d="M14,1.4L7.5,7H0.9C0.4,7,0,7.4,0,7.9v8.3c0,0.5,0.4,0.9,0.9,0.9h6.7l6.4,5.6c0.6,0.6,1.6,0.1,1.6-0.8V2.2     C15.6,1.3,14.6,0.9,14,1.4z M13.6,19.7l-5.3-4.6H2V9h6.3l5.3-4.6V19.7z"/>
			<g>
				<polygon class="st4" points="8.3,8.8 2,8.8 2,9 8.3,9 13.6,4.4 13.6,4.1     "/>
				<path class="st4" d="M14,22.4l-6.4-5.6H0.9c-0.5,0-0.9-0.4-0.9-0.9v0.3c0,0.5,0.4,0.9,0.9,0.9h6.7l6.4,5.6      c0.6,0.6,1.6,0.1,1.6-0.8v-0.3C15.6,22.5,14.6,23,14,22.4z"/>
			</g>
			<linearGradient id="SVGID_5_" gradientUnits="userSpaceOnUse" x1="7.8106" y1="1.1914" x2="7.8106" y2="15.4127">
				<stop offset="0" style="stop-color:#FCAB31"/>
				<stop offset="1" style="stop-color:#7F4601"/>
			</linearGradient>
			<path class="st5" d="M14,1.4L7.5,7H0.9C0.4,7,0,7.4,0,7.9v0.8c0,0.5,0.4,0.9,0.9,0.9H2V9h6.3l5.3-4.7v10.5l0.4,0.3     c0.6,0.6,1.6,0.1,1.6-0.8V2.2C15.6,1.3,14.6,0.9,14,1.4z"/>
			<linearGradient id="SVGID_6_" gradientUnits="userSpaceOnUse" x1="7.8106" y1="1.1914" x2="7.8106" y2="15.4127">
				<stop offset="0" style="stop-color:#FCAB31"/>
				<stop offset="1" style="stop-color:#7F4601"/>
			</linearGradient>
			<path class="st6" d="M15.6,2.2v12.2c0,0.8-1,1.3-1.6,0.8l-0.4-0.3V4.4L8.3,9H2v0.5H0.9C0.4,9.6,0,9.2,0,8.7V7.9     C0,7.4,0.4,7,0.9,7h6.7L14,1.4C14.6,0.9,15.6,1.3,15.6,2.2z"/>
		</g>
		<g>
			<linearGradient id="SVGID_7_" gradientUnits="userSpaceOnUse" x1="7.8123" y1="15.0813" x2="7.8123" y2="19.7248">
				<stop offset="0" style="stop-color:#FCAB31"/>
				<stop offset="1" style="stop-color:#F9A930"/>
			</linearGradient>
			<polygon class="st7" points="8.3,15.4 13.6,19.7 13.6,19.7 8.3,15.1 2,15.1 2,15.1    "/>
			<linearGradient id="SVGID_8_" gradientUnits="userSpaceOnUse" x1="7.8123" y1="1.1896" x2="7.8123" y2="8.1785">
				<stop offset="0" style="stop-color:#FCAB31"/>
				<stop offset="1" style="stop-color:#F9A930"/>
			</linearGradient>
			<path class="st8" d="M14,1.4L7.5,7H0.9C0.4,7,0,7.4,0,7.9v0.3c0-0.5,0.4-0.9,0.9-0.9h6.7L14,1.7c0.6-0.6,1.6-0.1,1.6,0.8V2.2     C15.6,1.3,14.6,0.9,14,1.4z"/>
		</g>
	</g>
</g>
</svg>